<svg width="28" height="25" viewBox="0 0 28 25" fill="none" xmlns="http://www.w3.org/2000/svg">
<path d="M13.515 22.9168C11.9569 22.9168 10.4927 22.6434 9.1224 22.0965C7.75206 21.5496 6.56006 20.8075 5.54639 19.87C4.53272 18.9325 3.73022 17.83 3.13892 16.5627C2.54761 15.2953 2.25195 13.9411 2.25195 12.5002C2.25195 11.0592 2.54761 9.70502 3.13892 8.43766C3.73022 7.1703 4.53272 6.06787 5.54639 5.13037C6.56006 4.19287 7.75206 3.45068 9.1224 2.90381C10.4927 2.35693 11.9569 2.0835 13.515 2.0835C15.073 2.0835 16.5372 2.35693 17.9076 2.90381C19.2779 3.45068 20.4699 4.19287 21.4836 5.13037C22.4972 6.06787 23.2997 7.1703 23.891 8.43766C24.4823 9.70502 24.778 11.0592 24.778 12.5002C24.778 12.9689 24.7498 13.429 24.6935 13.8804C24.6372 14.3318 24.5434 14.7745 24.4119 15.2085C24.1491 14.9307 23.8441 14.6963 23.4968 14.5054C23.1496 14.3144 22.7694 14.1842 22.3564 14.1147C22.4128 13.8543 22.455 13.5896 22.4832 13.3205C22.5113 13.0514 22.5254 12.7779 22.5254 12.5002C22.5254 10.1738 21.6525 8.20329 19.9067 6.5887C18.161 4.97412 16.0304 4.16683 13.515 4.16683C10.9996 4.16683 8.86898 4.97412 7.12321 6.5887C5.37744 8.20329 4.50456 10.1738 4.50456 12.5002C4.50456 14.8266 5.37744 16.797 7.12321 18.4116C8.86898 20.0262 10.9996 20.8335 13.515 20.8335C14.4723 20.8335 15.3875 20.7033 16.2603 20.4429C17.1332 20.1825 17.9357 19.8179 18.6678 19.3491C18.8931 19.6443 19.17 19.9047 19.4985 20.1304C19.827 20.3561 20.1789 20.5297 20.5544 20.6512C19.597 21.363 18.5223 21.9186 17.3303 22.3179C16.1383 22.7172 14.8665 22.9168 13.515 22.9168ZM21.6807 18.7502C21.2865 18.7502 20.9533 18.6243 20.6811 18.3726C20.4089 18.1208 20.2728 17.8127 20.2728 17.4481C20.2728 17.0835 20.4089 16.7753 20.6811 16.5236C20.9533 16.2719 21.2865 16.146 21.6807 16.146C22.0749 16.146 22.4081 16.2719 22.6803 16.5236C22.9524 16.7753 23.0885 17.0835 23.0885 17.4481C23.0885 17.8127 22.9524 18.1208 22.6803 18.3726C22.4081 18.6243 22.0749 18.7502 21.6807 18.7502ZM17.2318 17.396L12.3887 12.9168V7.29183H14.6413V12.0835L18.8086 15.9377L17.2318 17.396Z" fill="black"/>
</svg>
