<svg width="800" height="800" viewBox="0 0 430 800" fill="none" xmlns="http://www.w3.org/2000/svg">
<path d="M45.3333 333.333H378.667M45.3333 466.667H212M45.3333 100V166.667M378.667 100V166.667M18.6667 700H405.333C442.67 700 461.34 700 475.6 692.733C488.143 686.343 498.343 676.143 504.733 663.6C512 649.34 512 630.67 512 593.333V273.333C512 235.996 512 217.328 504.733 203.067C498.343 190.523 488.143 180.324 475.6 173.933C461.34 166.667 442.67 166.667 405.333 166.667H18.6667C-18.67 166.667 -37.3387 166.667 -51.5993 173.933C-64.1437 180.324 -74.3423 190.523 -80.7337 203.067C-88 217.328 -88 235.996 -88 273.333V593.333C-88 630.67 -88 649.34 -80.7337 663.6C-74.3423 676.143 -64.1437 686.343 -51.5993 692.733C-37.3387 700 -18.6703 700 18.6667 700Z" stroke="#717171" stroke-width="66.6667" stroke-linecap="round" stroke-linejoin="round"/>
</svg>
