<svg width="12" height="12" viewBox="0 0 3 12" fill="none" xmlns="http://www.w3.org/2000/svg">
<path d="M3 10.6154C3 10.9826 2.84196 11.3348 2.56066 11.5945C2.27936 11.8541 1.89782 12 1.5 12C1.10218 12 0.720644 11.8541 0.43934 11.5945C0.158035 11.3348 0 10.9826 0 10.6154C0 10.2482 0.158035 9.89598 0.43934 9.63631C0.720644 9.37665 1.10218 9.23077 1.5 9.23077C1.89782 9.23077 2.27936 9.37665 2.56066 9.63631C2.84196 9.89598 3 10.2482 3 10.6154ZM3 6C3 6.36722 2.84196 6.71941 2.56066 6.97907C2.27936 7.23874 1.89782 7.38462 1.5 7.38462C1.10218 7.38462 0.720644 7.23874 0.43934 6.97907C0.158035 6.71941 0 6.36722 0 6C0 5.63278 0.158035 5.28059 0.43934 5.02093C0.720644 4.76126 1.10218 4.61538 1.5 4.61538C1.89782 4.61538 2.27936 4.76126 2.56066 5.02093C2.84196 5.28059 3 5.63278 3 6ZM3 1.38462C3 1.75184 2.84196 2.10402 2.56066 2.36369C2.27936 2.62335 1.89782 2.76923 1.5 2.76923C1.10218 2.76923 0.720644 2.62335 0.43934 2.36369C0.158035 2.10402 0 1.75184 0 1.38462C0 1.01739 0.158035 0.66521 0.43934 0.405544C0.720644 0.145879 1.10218 0 1.5 0C1.89782 0 2.27936 0.145879 2.56066 0.405544C2.84196 0.66521 3 1.01739 3 1.38462Z" fill="#535355"/>
</svg>
