<svg width="188" height="80" viewBox="0 0 188 80" fill="none" xmlns="http://www.w3.org/2000/svg">
<path d="M26.708 4.08C26.708 3.96 26.716 3.86 26.732 3.78C26.748 3.692 26.776 3.624 26.816 3.576C26.864 3.528 26.928 3.492 27.008 3.468C27.096 3.444 27.212 3.428 27.356 3.42C27.86 3.388 28.36 3.388 28.856 3.42C29.352 3.452 29.824 3.528 30.272 3.648C30.728 3.768 31.148 3.936 31.532 4.152C31.924 4.36 32.26 4.632 32.54 4.968C32.828 5.296 33.052 5.692 33.212 6.156C33.372 6.612 33.452 7.144 33.452 7.752C33.452 9.264 32.952 10.436 31.952 11.268C30.96 12.092 29.424 12.504 27.344 12.504C27.144 12.504 27.004 12.464 26.924 12.384C26.852 12.304 26.812 12.144 26.804 11.904L26.708 4.08ZM28.28 11.04C28.712 11.032 29.148 10.968 29.588 10.848C30.028 10.72 30.428 10.524 30.788 10.26C31.148 9.996 31.44 9.66 31.664 9.252C31.888 8.836 32 8.332 32 7.74C32 7.204 31.912 6.748 31.736 6.372C31.56 5.988 31.308 5.68 30.98 5.448C30.652 5.216 30.252 5.048 29.78 4.944C29.316 4.84 28.792 4.796 28.208 4.812L28.28 11.04Z" fill="#B56FCF"/>
<path d="M39.2722 8.484C39.2082 8.004 39.0282 7.644 38.7322 7.404C38.4442 7.164 38.0802 7.044 37.6402 7.044C37.1522 7.044 36.7522 7.196 36.4402 7.5C36.1282 7.804 35.9562 8.216 35.9242 8.736L39.2722 8.484ZM37.6042 5.676C38.1162 5.676 38.5642 5.76 38.9482 5.928C39.3402 6.096 39.6722 6.336 39.9442 6.648C40.2162 6.952 40.4242 7.324 40.5682 7.764C40.7202 8.204 40.8082 8.696 40.8322 9.24C40.8402 9.4 40.8162 9.512 40.7602 9.576C40.7042 9.632 40.6002 9.668 40.4482 9.684L36.0322 10.032C36.0882 10.28 36.1922 10.484 36.3442 10.644C36.5042 10.804 36.6922 10.932 36.9082 11.028C37.1242 11.116 37.3602 11.172 37.6162 11.196C37.8802 11.22 38.1402 11.22 38.3962 11.196C38.6522 11.172 38.9002 11.132 39.1402 11.076C39.3802 11.012 39.5882 10.936 39.7642 10.848C39.8762 10.792 39.9522 10.784 39.9922 10.824C40.0322 10.864 40.0602 10.94 40.0762 11.052L40.1602 11.856C40.1762 11.968 40.1642 12.044 40.1242 12.084C40.0922 12.124 40.0202 12.164 39.9082 12.204C39.5642 12.34 39.2042 12.436 38.8282 12.492C38.4522 12.556 38.1162 12.588 37.8202 12.588C37.2762 12.588 36.7922 12.5 36.3682 12.324C35.9522 12.148 35.6002 11.908 35.3122 11.604C35.0242 11.292 34.8042 10.924 34.6522 10.5C34.5082 10.068 34.4362 9.6 34.4362 9.096C34.4362 8.656 34.5042 8.232 34.6402 7.824C34.7842 7.416 34.9882 7.052 35.2522 6.732C35.5242 6.412 35.8562 6.156 36.2482 5.964C36.6402 5.772 37.0922 5.676 37.6042 5.676ZM43.6239 12.528C43.4879 12.528 43.3879 12.508 43.3239 12.468C43.2679 12.436 43.2079 12.332 43.1439 12.156L41.0199 6.408C40.9719 6.264 40.9559 6.164 40.9719 6.108C40.9959 6.044 41.0719 5.992 41.1999 5.952L41.9319 5.676C42.0839 5.62 42.1879 5.604 42.2439 5.628C42.2999 5.644 42.3479 5.716 42.3879 5.844L44.2119 10.86L46.0239 5.868C46.0639 5.74 46.1119 5.668 46.1679 5.652C46.2239 5.628 46.3279 5.644 46.4799 5.7L47.2359 5.952C47.3639 5.992 47.4359 6.044 47.4519 6.108C47.4759 6.164 47.4639 6.264 47.4159 6.408L45.2919 12.156C45.2279 12.332 45.1639 12.436 45.0999 12.468C45.0439 12.508 44.9479 12.528 44.8119 12.528H43.6239ZM52.6902 8.484C52.6262 8.004 52.4462 7.644 52.1502 7.404C51.8622 7.164 51.4982 7.044 51.0582 7.044C50.5702 7.044 50.1702 7.196 49.8582 7.5C49.5462 7.804 49.3742 8.216 49.3422 8.736L52.6902 8.484ZM51.0222 5.676C51.5342 5.676 51.9822 5.76 52.3662 5.928C52.7582 6.096 53.0902 6.336 53.3622 6.648C53.6342 6.952 53.8422 7.324 53.9862 7.764C54.1382 8.204 54.2262 8.696 54.2502 9.24C54.2582 9.4 54.2342 9.512 54.1782 9.576C54.1222 9.632 54.0182 9.668 53.8662 9.684L49.4502 10.032C49.5062 10.28 49.6102 10.484 49.7622 10.644C49.9222 10.804 50.1102 10.932 50.3262 11.028C50.5422 11.116 50.7782 11.172 51.0342 11.196C51.2982 11.22 51.5582 11.22 51.8142 11.196C52.0702 11.172 52.3182 11.132 52.5582 11.076C52.7982 11.012 53.0062 10.936 53.1822 10.848C53.2942 10.792 53.3702 10.784 53.4102 10.824C53.4502 10.864 53.4782 10.94 53.4942 11.052L53.5782 11.856C53.5942 11.968 53.5822 12.044 53.5422 12.084C53.5102 12.124 53.4382 12.164 53.3262 12.204C52.9822 12.34 52.6222 12.436 52.2462 12.492C51.8702 12.556 51.5342 12.588 51.2382 12.588C50.6942 12.588 50.2102 12.5 49.7862 12.324C49.3702 12.148 49.0182 11.908 48.7302 11.604C48.4422 11.292 48.2222 10.924 48.0702 10.5C47.9262 10.068 47.8542 9.6 47.8542 9.096C47.8542 8.656 47.9222 8.232 48.0582 7.824C48.2022 7.416 48.4062 7.052 48.6702 6.732C48.9422 6.412 49.2742 6.156 49.6662 5.964C50.0582 5.772 50.5102 5.676 51.0222 5.676ZM55.011 3.72C55.011 3.592 55.035 3.504 55.083 3.456C55.131 3.408 55.223 3.384 55.359 3.384H56.175C56.311 3.384 56.403 3.408 56.451 3.456C56.499 3.504 56.523 3.592 56.523 3.72V12.18C56.523 12.308 56.499 12.396 56.451 12.444C56.403 12.492 56.311 12.516 56.175 12.516H55.359C55.223 12.516 55.131 12.492 55.083 12.444C55.035 12.396 55.011 12.308 55.011 12.18V3.72ZM69.7981 8.856C69.7981 8.496 69.7261 8.2 69.5821 7.968C69.4381 7.728 69.2341 7.536 68.9701 7.392C68.7061 7.248 68.3861 7.148 68.0101 7.092C67.6421 7.028 67.2301 6.996 66.7741 6.996V11.004C67.2301 10.988 67.6421 10.936 68.0101 10.848C68.3861 10.752 68.7061 10.62 68.9701 10.452C69.2341 10.276 69.4381 10.056 69.5821 9.792C69.7261 9.528 69.7981 9.216 69.7981 8.856ZM65.2621 5.964C65.2621 5.836 65.2861 5.748 65.3341 5.7C65.3821 5.652 65.4741 5.628 65.6101 5.628H66.7741C67.3181 5.628 67.8581 5.668 68.3941 5.748C68.9381 5.828 69.4261 5.988 69.8581 6.228C70.2901 6.46 70.6381 6.796 70.9021 7.236C71.1741 7.668 71.3101 8.24 71.3101 8.952C71.3101 9.552 71.1781 10.072 70.9141 10.512C70.6581 10.944 70.3181 11.3 69.8941 11.58C69.4701 11.86 68.9861 12.068 68.4421 12.204C67.8981 12.34 67.3421 12.404 66.7741 12.396V14.424C66.7741 14.552 66.7501 14.64 66.7021 14.688C66.6541 14.736 66.5621 14.76 66.4261 14.76H65.6101C65.4741 14.76 65.3821 14.736 65.3341 14.688C65.2861 14.64 65.2621 14.552 65.2621 14.424V5.964ZM77.1003 8.484C77.0363 8.004 76.8563 7.644 76.5603 7.404C76.2723 7.164 75.9083 7.044 75.4683 7.044C74.9803 7.044 74.5803 7.196 74.2683 7.5C73.9563 7.804 73.7843 8.216 73.7523 8.736L77.1003 8.484ZM75.4323 5.676C75.9443 5.676 76.3923 5.76 76.7763 5.928C77.1683 6.096 77.5003 6.336 77.7723 6.648C78.0443 6.952 78.2523 7.324 78.3963 7.764C78.5483 8.204 78.6363 8.696 78.6603 9.24C78.6683 9.4 78.6443 9.512 78.5883 9.576C78.5323 9.632 78.4283 9.668 78.2763 9.684L73.8603 10.032C73.9163 10.28 74.0203 10.484 74.1723 10.644C74.3323 10.804 74.5203 10.932 74.7363 11.028C74.9523 11.116 75.1883 11.172 75.4443 11.196C75.7083 11.22 75.9683 11.22 76.2243 11.196C76.4803 11.172 76.7283 11.132 76.9683 11.076C77.2083 11.012 77.4163 10.936 77.5923 10.848C77.7043 10.792 77.7803 10.784 77.8203 10.824C77.8603 10.864 77.8883 10.94 77.9043 11.052L77.9883 11.856C78.0043 11.968 77.9923 12.044 77.9523 12.084C77.9203 12.124 77.8483 12.164 77.7363 12.204C77.3923 12.34 77.0323 12.436 76.6563 12.492C76.2803 12.556 75.9443 12.588 75.6483 12.588C75.1043 12.588 74.6203 12.5 74.1963 12.324C73.7803 12.148 73.4283 11.908 73.1403 11.604C72.8523 11.292 72.6323 10.924 72.4803 10.5C72.3363 10.068 72.2643 9.6 72.2643 9.096C72.2643 8.656 72.3323 8.232 72.4683 7.824C72.6123 7.416 72.8163 7.052 73.0803 6.732C73.3523 6.412 73.6843 6.156 74.0763 5.964C74.4683 5.772 74.9203 5.676 75.4323 5.676ZM79.5473 6.552C79.5473 6.432 79.5513 6.336 79.5593 6.264C79.5673 6.184 79.5873 6.124 79.6193 6.084C79.6593 6.044 79.7113 6.012 79.7753 5.988C79.8393 5.964 79.9233 5.944 80.0273 5.928C80.3233 5.888 80.6553 5.852 81.0233 5.82C81.3993 5.788 81.7713 5.768 82.1393 5.76C82.5073 5.744 82.8513 5.736 83.1713 5.736C83.4993 5.736 83.7593 5.748 83.9513 5.772C84.0873 5.788 84.1713 5.816 84.2033 5.856C84.2353 5.888 84.2473 5.972 84.2393 6.108L84.2033 6.78C84.1953 6.948 84.1713 7.052 84.1313 7.092C84.0913 7.124 83.9833 7.136 83.8073 7.128C83.6873 7.128 83.5113 7.132 83.2793 7.14C83.0473 7.148 82.7993 7.16 82.5353 7.176C82.2793 7.184 82.0233 7.2 81.7673 7.224C81.5113 7.24 81.2993 7.26 81.1313 7.284L81.1553 12.18C81.1553 12.308 81.1313 12.396 81.0833 12.444C81.0353 12.492 80.9433 12.516 80.8073 12.516H79.9913C79.8553 12.516 79.7633 12.492 79.7153 12.444C79.6673 12.396 79.6433 12.308 79.6433 12.18L79.5473 6.552ZM100.749 8.484C100.685 8.004 100.505 7.644 100.209 7.404C99.9208 7.164 99.5568 7.044 99.1168 7.044C98.6288 7.044 98.2288 7.196 97.9168 7.5C97.6048 7.804 97.4328 8.216 97.4008 8.736L100.749 8.484ZM99.0808 5.676C99.5928 5.676 100.041 5.76 100.425 5.928C100.817 6.096 101.149 6.336 101.421 6.648C101.693 6.952 101.901 7.324 102.045 7.764C102.197 8.204 102.285 8.696 102.309 9.24C102.317 9.4 102.293 9.512 102.237 9.576C102.181 9.632 102.077 9.668 101.925 9.684L97.5088 10.032C97.5648 10.28 97.6688 10.484 97.8208 10.644C97.9808 10.804 98.1688 10.932 98.3848 11.028C98.6008 11.116 98.8368 11.172 99.0928 11.196C99.3568 11.22 99.6168 11.22 99.8728 11.196C100.129 11.172 100.377 11.132 100.617 11.076C100.857 11.012 101.065 10.936 101.241 10.848C101.353 10.792 101.429 10.784 101.469 10.824C101.509 10.864 101.537 10.94 101.553 11.052L101.637 11.856C101.653 11.968 101.641 12.044 101.601 12.084C101.569 12.124 101.497 12.164 101.385 12.204C101.041 12.34 100.681 12.436 100.305 12.492C99.9288 12.556 99.5928 12.588 99.2968 12.588C98.7528 12.588 98.2688 12.5 97.8448 12.324C97.4288 12.148 97.0768 11.908 96.7888 11.604C96.5008 11.292 96.2808 10.924 96.1288 10.5C95.9848 10.068 95.9128 9.6 95.9128 9.096C95.9128 8.656 95.9808 8.232 96.1168 7.824C96.2608 7.416 96.4648 7.052 96.7288 6.732C97.0008 6.412 97.3328 6.156 97.7248 5.964C98.1168 5.772 98.5688 5.676 99.0808 5.676ZM103.802 10.824C104.098 10.944 104.414 11.048 104.75 11.136C105.086 11.216 105.398 11.256 105.686 11.256C106.022 11.256 106.306 11.208 106.538 11.112C106.778 11.016 106.898 10.856 106.898 10.632C106.898 10.512 106.85 10.408 106.754 10.32C106.658 10.232 106.534 10.152 106.382 10.08C106.23 10.008 106.058 9.94 105.866 9.876C105.674 9.812 105.478 9.744 105.278 9.672C105.022 9.584 104.766 9.484 104.51 9.372C104.262 9.26 104.038 9.128 103.838 8.976C103.646 8.816 103.486 8.632 103.358 8.424C103.238 8.208 103.178 7.96 103.178 7.68C103.178 7.456 103.222 7.224 103.31 6.984C103.406 6.744 103.562 6.528 103.778 6.336C104.002 6.144 104.29 5.988 104.642 5.868C105.002 5.74 105.446 5.676 105.974 5.676C106.454 5.676 106.858 5.716 107.186 5.796C107.514 5.876 107.822 5.988 108.11 6.132C108.198 6.172 108.254 6.22 108.278 6.276C108.31 6.332 108.322 6.408 108.314 6.504L108.266 7.296C108.258 7.416 108.23 7.488 108.182 7.512C108.142 7.536 108.066 7.52 107.954 7.464C107.722 7.344 107.454 7.24 107.15 7.152C106.854 7.056 106.502 7.008 106.094 7.008C105.71 7.008 105.394 7.064 105.146 7.176C104.906 7.288 104.786 7.46 104.786 7.692C104.786 7.836 104.846 7.96 104.966 8.064C105.086 8.16 105.242 8.248 105.434 8.328C105.626 8.408 105.842 8.488 106.082 8.568C106.322 8.64 106.562 8.724 106.802 8.82C107.05 8.916 107.274 9.024 107.474 9.144C107.682 9.256 107.862 9.388 108.014 9.54C108.166 9.684 108.282 9.852 108.362 10.044C108.45 10.236 108.494 10.452 108.494 10.692C108.494 11.292 108.254 11.756 107.774 12.084C107.302 12.42 106.666 12.588 105.866 12.588C105.322 12.588 104.87 12.544 104.51 12.456C104.158 12.376 103.822 12.256 103.502 12.096C103.414 12.048 103.362 11.992 103.346 11.928C103.338 11.856 103.342 11.76 103.358 11.64L103.478 11.016C103.494 10.904 103.522 10.836 103.562 10.812C103.61 10.78 103.69 10.784 103.802 10.824ZM109.547 4.224C109.547 3.952 109.639 3.724 109.823 3.54C110.015 3.356 110.251 3.264 110.531 3.264C110.811 3.264 111.051 3.356 111.251 3.54C111.451 3.724 111.551 3.952 111.551 4.224C111.551 4.504 111.451 4.736 111.251 4.92C111.051 5.096 110.811 5.184 110.531 5.184C110.251 5.184 110.015 5.096 109.823 4.92C109.639 4.736 109.547 4.504 109.547 4.224ZM109.823 6.528C109.823 6.4 109.847 6.312 109.895 6.264C109.943 6.208 110.035 6.18 110.171 6.18H110.987C111.123 6.18 111.215 6.208 111.263 6.264C111.311 6.312 111.335 6.4 111.335 6.528V12.18C111.335 12.308 111.311 12.396 111.263 12.444C111.215 12.492 111.123 12.516 110.987 12.516H110.171C110.035 12.516 109.943 12.492 109.895 12.444C109.847 12.396 109.823 12.308 109.823 12.18V6.528ZM114.089 9.288C114.089 9.648 114.161 9.948 114.305 10.188C114.449 10.428 114.653 10.62 114.917 10.764C115.181 10.908 115.497 11.008 115.865 11.064C116.241 11.12 116.657 11.148 117.113 11.148V7.14C116.657 7.156 116.241 7.212 115.865 7.308C115.497 7.396 115.181 7.528 114.917 7.704C114.653 7.88 114.449 8.1 114.305 8.364C114.161 8.62 114.089 8.928 114.089 9.288ZM118.625 12.18C118.625 12.308 118.601 12.396 118.553 12.444C118.505 12.492 118.413 12.516 118.277 12.516H117.113C116.569 12.516 116.025 12.476 115.481 12.396C114.945 12.316 114.461 12.16 114.029 11.928C113.597 11.688 113.245 11.352 112.973 10.92C112.709 10.48 112.577 9.904 112.577 9.192C112.577 8.592 112.705 8.076 112.961 7.644C113.225 7.204 113.569 6.844 113.993 6.564C114.417 6.284 114.901 6.076 115.445 5.94C115.989 5.804 116.545 5.74 117.113 5.748V3.72C117.113 3.592 117.137 3.504 117.185 3.456C117.233 3.408 117.325 3.384 117.461 3.384H118.277C118.413 3.384 118.505 3.408 118.553 3.456C118.601 3.504 118.625 3.592 118.625 3.72V12.18ZM124.397 8.484C124.333 8.004 124.153 7.644 123.857 7.404C123.569 7.164 123.205 7.044 122.765 7.044C122.277 7.044 121.877 7.196 121.565 7.5C121.253 7.804 121.081 8.216 121.049 8.736L124.397 8.484ZM122.729 5.676C123.241 5.676 123.689 5.76 124.073 5.928C124.465 6.096 124.797 6.336 125.069 6.648C125.341 6.952 125.549 7.324 125.693 7.764C125.845 8.204 125.933 8.696 125.957 9.24C125.965 9.4 125.941 9.512 125.885 9.576C125.829 9.632 125.725 9.668 125.573 9.684L121.157 10.032C121.213 10.28 121.317 10.484 121.469 10.644C121.629 10.804 121.817 10.932 122.033 11.028C122.249 11.116 122.485 11.172 122.741 11.196C123.005 11.22 123.265 11.22 123.521 11.196C123.777 11.172 124.025 11.132 124.265 11.076C124.505 11.012 124.713 10.936 124.889 10.848C125.001 10.792 125.077 10.784 125.117 10.824C125.157 10.864 125.185 10.94 125.201 11.052L125.285 11.856C125.301 11.968 125.289 12.044 125.249 12.084C125.217 12.124 125.145 12.164 125.033 12.204C124.689 12.34 124.329 12.436 123.953 12.492C123.577 12.556 123.241 12.588 122.945 12.588C122.401 12.588 121.917 12.5 121.493 12.324C121.077 12.148 120.725 11.908 120.437 11.604C120.149 11.292 119.929 10.924 119.777 10.5C119.633 10.068 119.561 9.6 119.561 9.096C119.561 8.656 119.629 8.232 119.765 7.824C119.909 7.416 120.113 7.052 120.377 6.732C120.649 6.412 120.981 6.156 121.373 5.964C121.765 5.772 122.217 5.676 122.729 5.676ZM140.758 9.12C140.758 9.424 140.798 9.7 140.878 9.948C140.958 10.196 141.074 10.408 141.226 10.584C141.378 10.76 141.558 10.9 141.766 11.004C141.974 11.1 142.21 11.148 142.474 11.148C142.738 11.148 142.974 11.1 143.182 11.004C143.398 10.9 143.578 10.76 143.722 10.584C143.874 10.408 143.99 10.196 144.07 9.948C144.158 9.7 144.202 9.424 144.202 9.12C144.202 8.824 144.158 8.552 144.07 8.304C143.99 8.048 143.874 7.832 143.722 7.656C143.578 7.48 143.398 7.344 143.182 7.248C142.974 7.144 142.738 7.092 142.474 7.092C142.21 7.092 141.974 7.144 141.766 7.248C141.558 7.344 141.378 7.48 141.226 7.656C141.074 7.832 140.958 8.048 140.878 8.304C140.798 8.552 140.758 8.824 140.758 9.12ZM139.342 9.12C139.342 8.624 139.414 8.168 139.558 7.752C139.71 7.328 139.922 6.964 140.194 6.66C140.466 6.348 140.794 6.108 141.178 5.94C141.562 5.764 141.994 5.676 142.474 5.676C142.954 5.676 143.386 5.764 143.77 5.94C144.162 6.108 144.49 6.348 144.754 6.66C145.026 6.964 145.234 7.328 145.378 7.752C145.53 8.168 145.606 8.624 145.606 9.12C145.606 9.616 145.53 10.076 145.378 10.5C145.234 10.924 145.026 11.288 144.754 11.592C144.49 11.896 144.162 12.132 143.77 12.3C143.386 12.476 142.954 12.564 142.474 12.564C141.994 12.564 141.562 12.476 141.178 12.3C140.794 12.132 140.466 11.896 140.194 11.592C139.922 11.288 139.71 10.924 139.558 10.5C139.414 10.076 139.342 9.616 139.342 9.12ZM148.198 9.168C148.19 9.56 148.194 9.884 148.21 10.14C148.234 10.396 148.294 10.596 148.39 10.74C148.494 10.884 148.646 10.984 148.846 11.04C149.046 11.088 149.322 11.108 149.674 11.1L151.222 11.064L151.282 6.084C151.282 5.956 151.306 5.868 151.354 5.82C151.41 5.772 151.506 5.748 151.642 5.748H152.518C152.654 5.748 152.746 5.772 152.794 5.82C152.842 5.868 152.866 5.956 152.866 6.084L152.782 11.916C152.774 12.132 152.742 12.268 152.686 12.324C152.638 12.388 152.538 12.424 152.386 12.432C151.978 12.464 151.478 12.484 150.886 12.492C150.294 12.508 149.642 12.516 148.93 12.516C148.49 12.516 148.114 12.432 147.802 12.264C147.498 12.104 147.254 11.892 147.07 11.628C146.886 11.364 146.754 11.064 146.674 10.728C146.602 10.392 146.574 10.048 146.59 9.696L146.746 6.084C146.746 5.956 146.77 5.868 146.818 5.82C146.874 5.772 146.97 5.748 147.106 5.748H147.982C148.118 5.748 148.21 5.772 148.258 5.82C148.306 5.868 148.33 5.956 148.33 6.084L148.198 9.168Z" fill="#535355"/>
<path d="M59.1959 9.12C59.1959 9.424 59.2359 9.7 59.3159 9.948C59.3959 10.196 59.5119 10.408 59.6639 10.584C59.8159 10.76 59.9959 10.9 60.2039 11.004C60.4119 11.1 60.6479 11.148 60.9119 11.148C61.1759 11.148 61.4119 11.1 61.6199 11.004C61.8359 10.9 62.0159 10.76 62.1599 10.584C62.3119 10.408 62.4279 10.196 62.5079 9.948C62.5959 9.7 62.6399 9.424 62.6399 9.12C62.6399 8.824 62.5959 8.552 62.5079 8.304C62.4279 8.048 62.3119 7.832 62.1599 7.656C62.0159 7.48 61.8359 7.344 61.6199 7.248C61.4119 7.144 61.1759 7.092 60.9119 7.092C60.6479 7.092 60.4119 7.144 60.2039 7.248C59.9959 7.344 59.8159 7.48 59.6639 7.656C59.5119 7.832 59.3959 8.048 59.3159 8.304C59.2359 8.552 59.1959 8.824 59.1959 9.12ZM57.7799 9.12C57.7799 8.624 57.8519 8.168 57.9959 7.752C58.1479 7.328 58.3599 6.964 58.6319 6.66C58.9039 6.348 59.2319 6.108 59.6159 5.94C59.9999 5.764 60.4319 5.676 60.9119 5.676C61.3919 5.676 61.8239 5.764 62.2079 5.94C62.5999 6.108 62.9279 6.348 63.1919 6.66C63.4639 6.964 63.6719 7.328 63.8159 7.752C63.9679 8.168 64.0439 8.624 64.0439 9.12C64.0439 9.616 63.9679 10.076 63.8159 10.5C63.6719 10.924 63.4639 11.288 63.1919 11.592C62.9279 11.896 62.5999 12.132 62.2079 12.3C61.8239 12.476 61.3919 12.564 60.9119 12.564C60.4319 12.564 59.9999 12.476 59.6159 12.3C59.2319 12.132 58.9039 11.896 58.6319 11.592C58.3599 11.288 58.1479 10.924 57.9959 10.5C57.8519 10.076 57.7799 9.616 57.7799 9.12Z" fill="#FA7373"/>
<path d="M88.4278 4.02C88.4198 3.828 88.4358 3.704 88.4758 3.648C88.5238 3.584 88.6318 3.532 88.7998 3.492C88.9918 3.452 89.1678 3.42 89.3278 3.396C89.4878 3.364 89.6398 3.34 89.7838 3.324C89.9358 3.308 90.0838 3.296 90.2278 3.288C90.3718 3.28 90.5238 3.272 90.6838 3.264C91.1398 3.248 91.5838 3.276 92.0158 3.348C92.4478 3.412 92.8358 3.536 93.1798 3.72C93.5238 3.896 93.8038 4.14 94.0198 4.452C94.2438 4.756 94.3758 5.14 94.4158 5.604C94.4398 5.964 94.3918 6.3 94.2718 6.612C94.1518 6.916 93.9198 7.168 93.5758 7.368C93.7998 7.448 93.9998 7.568 94.1758 7.728C94.3518 7.88 94.4998 8.06 94.6198 8.268C94.7478 8.468 94.8438 8.688 94.9078 8.928C94.9718 9.168 95.0078 9.416 95.0158 9.672C95.0238 10.096 94.9478 10.464 94.7878 10.776C94.6358 11.08 94.4198 11.336 94.1398 11.544C93.8678 11.752 93.5438 11.92 93.1678 12.048C92.7918 12.176 92.3838 12.272 91.9438 12.336C91.5118 12.408 91.0598 12.452 90.5878 12.468C90.1238 12.492 89.6598 12.504 89.1958 12.504C88.9878 12.504 88.8478 12.468 88.7758 12.396C88.7118 12.332 88.6758 12.184 88.6678 11.952L88.4278 4.02ZM90.1198 11.088C91.2798 11.088 92.1358 10.976 92.6878 10.752C93.2398 10.52 93.5078 10.16 93.4918 9.672C93.4758 9.384 93.3798 9.16 93.2038 9C93.0358 8.832 92.7998 8.708 92.4958 8.628C92.1998 8.548 91.8438 8.512 91.4278 8.52C91.0118 8.52 90.5558 8.544 90.0598 8.592L90.1198 11.088ZM89.9998 7.296C90.4558 7.288 90.8638 7.264 91.2238 7.224C91.5918 7.184 91.8998 7.112 92.1478 7.008C92.3958 6.904 92.5838 6.764 92.7118 6.588C92.8478 6.404 92.9158 6.168 92.9158 5.88C92.9158 5.352 92.6598 4.98 92.1478 4.764C91.6438 4.54 90.9078 4.488 89.9398 4.608L89.9998 7.296Z" fill="#6FA6F4"/>
<path d="M130.946 3.432C131.042 3.36 131.122 3.328 131.186 3.336C131.25 3.344 131.322 3.392 131.402 3.48L134.33 7.116L137.246 3.504C137.326 3.416 137.398 3.368 137.462 3.36C137.526 3.352 137.606 3.384 137.702 3.456L138.35 3.912C138.478 4 138.538 4.08 138.53 4.152C138.53 4.224 138.482 4.32 138.386 4.44L135.386 8.148C135.29 8.276 135.214 8.4 135.158 8.52C135.11 8.64 135.086 8.8 135.086 9V12.18C135.086 12.308 135.062 12.396 135.014 12.444C134.966 12.492 134.874 12.516 134.738 12.516H133.922C133.786 12.516 133.694 12.492 133.646 12.444C133.598 12.396 133.574 12.308 133.574 12.18V9C133.574 8.8 133.546 8.64 133.49 8.52C133.442 8.4 133.37 8.276 133.274 8.148L130.274 4.44C130.178 4.32 130.126 4.224 130.118 4.152C130.118 4.08 130.182 4 130.31 3.912L130.946 3.432Z" fill="#FACC57"/>
<path d="M154.343 11.844C154.343 11.612 154.419 11.424 154.571 11.28C154.731 11.128 154.935 11.052 155.183 11.052C155.415 11.052 155.611 11.128 155.771 11.28C155.931 11.424 156.011 11.612 156.011 11.844C156.011 12.076 155.931 12.264 155.771 12.408C155.611 12.552 155.415 12.624 155.183 12.624C154.935 12.624 154.731 12.552 154.571 12.408C154.419 12.264 154.343 12.076 154.343 11.844ZM154.451 3.72C154.451 3.592 154.475 3.504 154.523 3.456C154.571 3.408 154.663 3.384 154.799 3.384H155.615C155.751 3.384 155.843 3.408 155.891 3.456C155.939 3.504 155.963 3.592 155.963 3.72V9.792C155.963 9.92 155.939 10.008 155.891 10.056C155.843 10.104 155.751 10.128 155.615 10.128H154.799C154.663 10.128 154.571 10.104 154.523 10.056C154.475 10.008 154.451 9.92 154.451 9.792V3.72Z" fill="#EA83A8"/>
<path d="M3.54 32C3.54 30.84 3.72 30.06 4.08 29.66C4.44 29.22 5.3 28.96 6.66 28.88C9.06 28.72 11.46 28.7 13.86 28.82C16.26 28.94 18.56 29.26 20.76 29.78C22.96 30.3 25 31.06 26.88 32.06C28.76 33.06 30.4 34.36 31.8 35.96C33.2 37.56 34.3 39.5 35.1 41.78C35.9 44.06 36.3 46.74 36.3 49.82C36.3 57.38 33.84 63.1 28.92 66.98C24 70.82 16.56 72.74 6.6 72.74C4.88 72.74 4.02 71.78 4.02 69.86L3.54 32ZM13.92 62.84C18 62.28 21.06 60.94 23.1 58.82C25.14 56.66 26.16 53.64 26.16 49.76C26.16 47.96 25.88 46.32 25.32 44.84C24.76 43.36 23.94 42.1 22.86 41.06C21.78 40.06 20.44 39.3 18.84 38.78C17.28 38.22 15.48 37.98 13.44 38.06L13.92 62.84Z" fill="#B56FCF"/>
<path d="M70.1034 50.78C70.1034 48.62 69.8634 46.72 69.3834 45.08C68.9034 43.44 68.2634 42.06 67.4634 40.94C66.6234 39.86 65.6434 39.06 64.5234 38.54C63.4034 37.98 62.2034 37.7 60.9234 37.7C59.6434 37.7 58.4434 37.98 57.3234 38.54C56.2034 39.06 55.2434 39.86 54.4434 40.94C53.6034 42.06 52.9434 43.44 52.4634 45.08C51.9834 46.72 51.7434 48.62 51.7434 50.78C51.7434 52.94 51.9834 54.84 52.4634 56.48C52.9434 58.12 53.6034 59.48 54.4434 60.56C55.2434 61.64 56.2034 62.46 57.3234 63.02C58.4434 63.54 59.6434 63.8 60.9234 63.8C62.2034 63.8 63.4034 63.54 64.5234 63.02C65.6434 62.46 66.6234 61.64 67.4634 60.56C68.2634 59.48 68.9034 58.12 69.3834 56.48C69.8634 54.84 70.1034 52.94 70.1034 50.78ZM80.6034 50.78C80.6034 54.26 80.0634 57.4 78.9834 60.2C77.9434 63 76.5234 65.38 74.7234 67.34C72.9234 69.3 70.8234 70.8 68.4234 71.84C66.0634 72.88 63.5634 73.4 60.9234 73.4C58.2834 73.4 55.7634 72.88 53.3634 71.84C51.0034 70.8 48.9234 69.3 47.1234 67.34C45.3234 65.38 43.8834 63 42.8034 60.2C41.7634 57.4 41.2434 54.24 41.2434 50.72C41.2434 47.24 41.7634 44.1 42.8034 41.3C43.8834 38.5 45.3234 36.12 47.1234 34.16C48.9234 32.2 51.0034 30.7 53.3634 29.66C55.7634 28.62 58.2834 28.1 60.9234 28.1C63.5634 28.1 66.0634 28.64 68.4234 29.72C70.8234 30.76 72.9234 32.26 74.7234 34.22C76.5234 36.18 77.9434 38.56 78.9834 41.36C80.0634 44.16 80.6034 47.3 80.6034 50.78Z" fill="#FA7373"/>
<path d="M86.3775 31.88C86.3375 30.96 86.4575 30.34 86.7375 30.02C87.0575 29.66 87.6575 29.38 88.5375 29.18C89.4175 29.02 90.2375 28.88 90.9975 28.76C91.7575 28.6 92.4975 28.48 93.2175 28.4C93.8975 28.32 94.5775 28.26 95.2575 28.22C95.9375 28.18 96.6575 28.14 97.4175 28.1C99.5775 28.06 101.698 28.2 103.778 28.52C105.898 28.8 107.798 29.38 109.478 30.26C111.158 31.14 112.538 32.34 113.618 33.86C114.698 35.34 115.318 37.24 115.478 39.56C115.598 41.12 115.418 42.66 114.938 44.18C114.458 45.66 113.518 46.92 112.118 47.96C114.038 48.88 115.538 50.36 116.618 52.4C117.698 54.44 118.278 56.62 118.358 58.94C118.398 61.02 118.058 62.82 117.337 64.34C116.618 65.86 115.598 67.12 114.277 68.12C112.958 69.16 111.398 70 109.598 70.64C107.798 71.24 105.858 71.7 103.778 72.02C101.698 72.34 99.5375 72.54 97.2975 72.62C95.0575 72.74 92.8375 72.78 90.6375 72.74C90.1975 72.74 89.7775 72.72 89.3775 72.68C89.0175 72.64 88.7175 72.52 88.4775 72.32C88.1975 72.12 87.9575 71.82 87.7575 71.42C87.5975 71.06 87.5175 70.52 87.5175 69.8L86.3775 31.88ZM97.1775 64.04C98.7775 64.04 100.258 63.96 101.618 63.8C103.018 63.64 104.238 63.36 105.278 62.96C106.278 62.56 107.038 62.04 107.558 61.4C108.118 60.72 108.378 59.9 108.338 58.94C108.258 57.7 107.778 56.78 106.898 56.18C106.018 55.54 104.978 55.1 103.778 54.86C102.578 54.62 101.338 54.54 100.058 54.62C98.8175 54.66 97.7575 54.72 96.8775 54.8L97.1775 64.04ZM96.5175 46.58C97.5575 46.58 98.5975 46.54 99.6375 46.46C100.718 46.38 101.678 46.14 102.518 45.74C103.358 45.38 104.038 44.82 104.558 44.06C105.078 43.3 105.338 42.24 105.338 40.88C105.338 39.8 105.058 38.94 104.498 38.3C103.938 37.62 103.218 37.12 102.338 36.8C101.458 36.52 100.478 36.38 99.3975 36.38C98.3175 36.34 97.2575 36.38 96.2175 36.5L96.5175 46.58Z" fill="#6FA6F4"/>
<path d="M152.565 29.12C152.965 28.56 153.305 28.22 153.585 28.1C153.865 27.94 154.345 28.02 155.025 28.34L161.265 31.04C161.985 31.36 162.405 31.8 162.525 32.36C162.685 32.88 162.525 33.48 162.045 34.16L149.325 51.68C148.885 52.32 148.525 52.92 148.245 53.48C148.005 54.04 147.885 54.8 147.885 55.76V69.62C147.885 70.82 147.685 71.64 147.285 72.08C146.885 72.56 146.165 72.8 145.125 72.8H140.085C139.045 72.8 138.325 72.56 137.925 72.08C137.565 71.64 137.385 70.82 137.385 69.62L137.205 55.76C137.205 54.8 137.065 54.04 136.785 53.48C136.545 52.92 136.205 52.32 135.765 51.68L123.045 34.16C122.565 33.48 122.385 32.88 122.505 32.36C122.665 31.8 123.105 31.36 123.825 31.04L130.065 28.34C130.745 28.02 131.225 27.94 131.505 28.1C131.785 28.22 132.125 28.56 132.525 29.12L142.485 43.28L152.565 29.12Z" fill="#FACC57"/>
<path d="M169.273 68.72C169.273 67.32 169.733 66.2 170.653 65.36C171.613 64.48 172.793 64.04 174.193 64.04C175.513 64.04 176.653 64.48 177.613 65.36C178.573 66.2 179.053 67.32 179.053 68.72C179.053 70.08 178.573 71.18 177.613 72.02C176.653 72.9 175.513 73.34 174.193 73.34C172.793 73.34 171.613 72.9 170.653 72.02C169.733 71.18 169.273 70.08 169.273 68.72ZM169.273 31.4C169.273 30.36 169.433 29.66 169.753 29.3C170.113 28.9 170.713 28.7 171.553 28.7H177.013C177.893 28.7 178.493 28.9 178.813 29.3C179.133 29.66 179.293 30.36 179.293 31.4V57.86C179.293 58.9 179.133 59.62 178.813 60.02C178.493 60.38 177.893 60.56 177.013 60.56H171.553C170.713 60.56 170.113 60.38 169.753 60.02C169.433 59.62 169.273 58.9 169.273 57.86V31.4Z" fill="#EA83A8"/>
</svg>
