<svg width="30" height="30" viewBox="0 0 25 25" fill="none" xmlns="http://www.w3.org/2000/svg">
<path d="M12.5007 22.9168C11.0597 22.9168 9.70551 22.6434 8.43815 22.0965C7.17079 21.5496 6.06836 20.8075 5.13086 19.87C4.19336 18.9325 3.45117 17.83 2.9043 16.5627C2.35742 15.2953 2.08398 13.9411 2.08398 12.5002C2.08398 11.0592 2.35742 9.70502 2.9043 8.43766C3.45117 7.1703 4.19336 6.06787 5.13086 5.13037C6.06836 4.19287 7.17079 3.45068 8.43815 2.90381C9.70551 2.35693 11.0597 2.0835 12.5007 2.0835C13.9416 2.0835 15.2958 2.35693 16.5631 2.90381C17.8305 3.45068 18.9329 4.19287 19.8704 5.13037C20.8079 6.06787 21.5501 7.1703 22.097 8.43766C22.6439 9.70502 22.9173 11.0592 22.9173 12.5002C22.9173 12.9689 22.8913 13.429 22.8392 13.8804C22.7871 14.3318 22.7003 14.7745 22.5788 15.2085C22.3357 14.9307 22.0536 14.6963 21.7324 14.5054C21.4112 14.3144 21.0597 14.1842 20.6777 14.1147C20.7298 13.8543 20.7689 13.5896 20.7949 13.3205C20.821 13.0514 20.834 12.7779 20.834 12.5002C20.834 10.1738 20.0267 8.20329 18.4121 6.5887C16.7975 4.97412 14.827 4.16683 12.5007 4.16683C10.1743 4.16683 8.20378 4.97412 6.58919 6.5887C4.97461 8.20329 4.16732 10.1738 4.16732 12.5002C4.16732 14.8266 4.97461 16.797 6.58919 18.4116C8.20378 20.0262 10.1743 20.8335 12.5007 20.8335C13.3861 20.8335 14.2324 20.7033 15.0397 20.4429C15.847 20.1825 16.5892 19.8179 17.2663 19.3491C17.4746 19.6443 17.7307 19.9047 18.0345 20.1304C18.3383 20.3561 18.6638 20.5297 19.0111 20.6512C18.1256 21.363 17.1317 21.9186 16.0293 22.3179C14.9269 22.7172 13.7506 22.9168 12.5007 22.9168ZM20.0527 18.7502C19.6881 18.7502 19.38 18.6243 19.1283 18.3726C18.8765 18.1208 18.7506 17.8127 18.7506 17.4481C18.7506 17.0835 18.8765 16.7753 19.1283 16.5236C19.38 16.2719 19.6881 16.146 20.0527 16.146C20.4173 16.146 20.7255 16.2719 20.9772 16.5236C21.2289 16.7753 21.3548 17.0835 21.3548 17.4481C21.3548 17.8127 21.2289 18.1208 20.9772 18.3726C20.7255 18.6243 20.4173 18.7502 20.0527 18.7502ZM15.9381 17.396L11.459 12.9168V7.29183H13.5423V12.0835L17.3965 15.9377L15.9381 17.396Z" fill="black"/>
</svg>
