<svg width="20" height="20" viewBox="0 0 20 20" fill="none" xmlns="http://www.w3.org/2000/svg">
<path fill-rule="evenodd" clip-rule="evenodd" d="M1.17157 1.1748C0 2.34637 0 4.23199 0 8.00323V12.0032C0 15.7745 0 17.6601 1.17157 18.8317C2.34315 20.0032 4.22876 20.0032 8 20.0032H12C15.7712 20.0032 17.6569 20.0032 18.8284 18.8317C20 17.6601 20 15.7745 20 12.0032V8.00323C20 5.16389 20 3.39341 19.5 2.19179V15.0032C18.5396 15.0032 17.6185 14.6217 16.9393 13.9426L16.1877 13.1909C15.4664 12.4696 15.1057 12.1089 14.6968 11.957C14.2473 11.7899 13.7527 11.7899 13.3032 11.957C12.8943 12.1089 12.5336 12.4696 11.8123 13.1909L11.6992 13.304C11.1138 13.8894 10.8212 14.1821 10.5102 14.2366C10.2685 14.2791 10.0197 14.2311 9.81101 14.102C9.54254 13.9358 9.3795 13.5554 9.05341 12.7945L9 12.6699C8.25036 10.9207 7.87554 10.0462 7.22167 9.71836C6.89249 9.55334 6.52413 9.4824 6.1572 9.51337C5.42836 9.57487 4.75554 10.2477 3.40989 11.5933L1.5 13.5032V0.890625C1.3844 0.976726 1.27519 1.07118 1.17157 1.1748Z" fill="#535355"/>
<path d="M1 8C1 6.08611 1.00212 4.75129 1.13753 3.74416C1.26907 2.76579 1.50966 2.2477 1.87868 1.87868C2.2477 1.50966 2.76579 1.26907 3.74416 1.13753C4.75129 1.00212 6.08611 1 8 1H12C13.9139 1 15.2487 1.00212 16.2558 1.13753C17.2342 1.26907 17.7523 1.50966 18.1213 1.87868C18.4903 2.2477 18.7309 2.76579 18.8625 3.74416C18.9979 4.75129 19 6.08611 19 8V12C19 13.9139 18.9979 15.2487 18.8625 16.2558C18.7309 17.2342 18.4903 17.7523 18.1213 18.1213C17.7523 18.4903 17.2342 18.7309 16.2558 18.8625C15.2487 18.9979 13.9139 19 12 19H8C6.08611 19 4.75129 18.9979 3.74416 18.8625C2.76579 18.7309 2.2477 18.4903 1.87868 18.1213C1.50966 17.7523 1.26907 17.2342 1.13753 16.2558C1.00212 15.2487 1 13.9139 1 12V8Z" stroke="#535355" stroke-width="2"/>
<circle cx="13" cy="7" r="2" fill="#535355"/>
</svg>
