<svg width="190" height="80" viewBox="0 0 190 80" fill="none" xmlns="http://www.w3.org/2000/svg">
<path d="M3.54 32C3.54 30.84 3.72 30.06 4.08 29.66C4.44 29.22 5.3 28.96 6.66 28.88C9.06 28.72 11.46 28.7 13.86 28.82C16.26 28.94 18.56 29.26 20.76 29.78C22.96 30.3 25 31.06 26.88 32.06C28.76 33.06 30.4 34.36 31.8 35.96C33.2 37.56 34.3 39.5 35.1 41.78C35.9 44.06 36.3 46.74 36.3 49.82C36.3 57.38 33.84 63.1 28.92 66.98C24 70.82 16.56 72.74 6.6 72.74C4.88 72.74 4.02 71.78 4.02 69.86L3.54 32ZM13.92 62.84C18 62.28 21.06 60.94 23.1 58.82C25.14 56.66 26.16 53.64 26.16 49.76C26.16 47.96 25.88 46.32 25.32 44.84C24.76 43.36 23.94 42.1 22.86 41.06C21.78 40.06 20.44 39.3 18.84 38.78C17.28 38.22 15.48 37.98 13.44 38.06L13.92 62.84Z" fill="#B56FCF"/>
<path d="M70.1034 50.78C70.1034 48.62 69.8634 46.72 69.3834 45.08C68.9034 43.44 68.2634 42.06 67.4634 40.94C66.6234 39.86 65.6434 39.06 64.5234 38.54C63.4034 37.98 62.2034 37.7 60.9234 37.7C59.6434 37.7 58.4434 37.98 57.3234 38.54C56.2034 39.06 55.2434 39.86 54.4434 40.94C53.6034 42.06 52.9434 43.44 52.4634 45.08C51.9834 46.72 51.7434 48.62 51.7434 50.78C51.7434 52.94 51.9834 54.84 52.4634 56.48C52.9434 58.12 53.6034 59.48 54.4434 60.56C55.2434 61.64 56.2034 62.46 57.3234 63.02C58.4434 63.54 59.6434 63.8 60.9234 63.8C62.2034 63.8 63.4034 63.54 64.5234 63.02C65.6434 62.46 66.6234 61.64 67.4634 60.56C68.2634 59.48 68.9034 58.12 69.3834 56.48C69.8634 54.84 70.1034 52.94 70.1034 50.78ZM80.6034 50.78C80.6034 54.26 80.0634 57.4 78.9834 60.2C77.9434 63 76.5234 65.38 74.7234 67.34C72.9234 69.3 70.8234 70.8 68.4234 71.84C66.0634 72.88 63.5634 73.4 60.9234 73.4C58.2834 73.4 55.7634 72.88 53.3634 71.84C51.0034 70.8 48.9234 69.3 47.1234 67.34C45.3234 65.38 43.8834 63 42.8034 60.2C41.7634 57.4 41.2434 54.24 41.2434 50.72C41.2434 47.24 41.7634 44.1 42.8034 41.3C43.8834 38.5 45.3234 36.12 47.1234 34.16C48.9234 32.2 51.0034 30.7 53.3634 29.66C55.7634 28.62 58.2834 28.1 60.9234 28.1C63.5634 28.1 66.0634 28.64 68.4234 29.72C70.8234 30.76 72.9234 32.26 74.7234 34.22C76.5234 36.18 77.9434 38.56 78.9834 41.36C80.0634 44.16 80.6034 47.3 80.6034 50.78Z" fill="#FA7373"/>
<path d="M86.3775 31.88C86.3375 30.96 86.4575 30.34 86.7375 30.02C87.0575 29.66 87.6575 29.38 88.5375 29.18C89.4175 29.02 90.2375 28.88 90.9975 28.76C91.7575 28.6 92.4975 28.48 93.2175 28.4C93.8975 28.32 94.5775 28.26 95.2575 28.22C95.9375 28.18 96.6575 28.14 97.4175 28.1C99.5775 28.06 101.698 28.2 103.778 28.52C105.898 28.8 107.798 29.38 109.478 30.26C111.158 31.14 112.538 32.34 113.618 33.86C114.698 35.34 115.318 37.24 115.478 39.56C115.598 41.12 115.418 42.66 114.938 44.18C114.458 45.66 113.518 46.92 112.118 47.96C114.038 48.88 115.538 50.36 116.618 52.4C117.698 54.44 118.278 56.62 118.358 58.94C118.398 61.02 118.058 62.82 117.337 64.34C116.618 65.86 115.598 67.12 114.277 68.12C112.958 69.16 111.398 70 109.598 70.64C107.798 71.24 105.858 71.7 103.778 72.02C101.698 72.34 99.5375 72.54 97.2975 72.62C95.0575 72.74 92.8375 72.78 90.6375 72.74C90.1975 72.74 89.7775 72.72 89.3775 72.68C89.0175 72.64 88.7175 72.52 88.4775 72.32C88.1975 72.12 87.9575 71.82 87.7575 71.42C87.5975 71.06 87.5175 70.52 87.5175 69.8L86.3775 31.88ZM97.1775 64.04C98.7775 64.04 100.258 63.96 101.618 63.8C103.018 63.64 104.238 63.36 105.278 62.96C106.278 62.56 107.038 62.04 107.558 61.4C108.118 60.72 108.378 59.9 108.338 58.94C108.258 57.7 107.778 56.78 106.898 56.18C106.018 55.54 104.978 55.1 103.778 54.86C102.578 54.62 101.338 54.54 100.058 54.62C98.8175 54.66 97.7575 54.72 96.8775 54.8L97.1775 64.04ZM96.5175 46.58C97.5575 46.58 98.5975 46.54 99.6375 46.46C100.718 46.38 101.678 46.14 102.518 45.74C103.358 45.38 104.038 44.82 104.558 44.06C105.078 43.3 105.338 42.24 105.338 40.88C105.338 39.8 105.058 38.94 104.498 38.3C103.938 37.62 103.218 37.12 102.338 36.8C101.458 36.52 100.478 36.38 99.3975 36.38C98.3175 36.34 97.2575 36.38 96.2175 36.5L96.5175 46.58Z" fill="#6FA6F4"/>
<path d="M152.565 29.12C152.965 28.56 153.305 28.22 153.585 28.1C153.865 27.94 154.345 28.02 155.025 28.34L161.265 31.04C161.985 31.36 162.405 31.8 162.525 32.36C162.685 32.88 162.525 33.48 162.045 34.16L149.325 51.68C148.885 52.32 148.525 52.92 148.245 53.48C148.005 54.04 147.885 54.8 147.885 55.76V69.62C147.885 70.82 147.685 71.64 147.285 72.08C146.885 72.56 146.165 72.8 145.125 72.8H140.085C139.045 72.8 138.325 72.56 137.925 72.08C137.565 71.64 137.385 70.82 137.385 69.62L137.205 55.76C137.205 54.8 137.065 54.04 136.785 53.48C136.545 52.92 136.205 52.32 135.765 51.68L123.045 34.16C122.565 33.48 122.385 32.88 122.505 32.36C122.665 31.8 123.105 31.36 123.825 31.04L130.065 28.34C130.745 28.02 131.225 27.94 131.505 28.1C131.785 28.22 132.125 28.56 132.525 29.12L142.485 43.28L152.565 29.12Z" fill="#FACC57"/>
<path d="M169.273 68.72C169.273 67.32 169.733 66.2 170.653 65.36C171.613 64.48 172.793 64.04 174.193 64.04C175.513 64.04 176.653 64.48 177.613 65.36C178.573 66.2 179.053 67.32 179.053 68.72C179.053 70.08 178.573 71.18 177.613 72.02C176.653 72.9 175.513 73.34 174.193 73.34C172.793 73.34 171.613 72.9 170.653 72.02C169.733 71.18 169.273 70.08 169.273 68.72ZM169.273 31.4C169.273 30.36 169.433 29.66 169.753 29.3C170.113 28.9 170.713 28.7 171.553 28.7H177.013C177.893 28.7 178.493 28.9 178.813 29.3C179.133 29.66 179.293 30.36 179.293 31.4V57.86C179.293 58.9 179.133 59.62 178.813 60.02C178.493 60.38 177.893 60.56 177.013 60.56H171.553C170.713 60.56 170.113 60.38 169.753 60.02C169.433 59.62 169.273 58.9 169.273 57.86V31.4Z" fill="#EA83A8"/>
<path d="M23.9521 4.08C23.9521 3.96 23.9601 3.86 23.9761 3.78C23.9921 3.692 24.0201 3.624 24.0601 3.576C24.1081 3.528 24.1721 3.492 24.2521 3.468C24.3401 3.444 24.4561 3.428 24.6001 3.42C25.1041 3.388 25.6041 3.388 26.1001 3.42C26.5961 3.452 27.0681 3.528 27.5161 3.648C27.9721 3.768 28.3921 3.936 28.7761 4.152C29.1681 4.36 29.5041 4.632 29.7841 4.968C30.0721 5.296 30.2961 5.692 30.4561 6.156C30.6161 6.612 30.6961 7.144 30.6961 7.752C30.6961 9.264 30.1961 10.436 29.1961 11.268C28.2041 12.092 26.6681 12.504 24.5881 12.504C24.3881 12.504 24.2481 12.464 24.1681 12.384C24.0961 12.304 24.0561 12.144 24.0481 11.904L23.9521 4.08ZM25.5241 11.04C25.9561 11.032 26.3921 10.968 26.8321 10.848C27.2721 10.72 27.6721 10.524 28.0321 10.26C28.3921 9.996 28.6841 9.66 28.9081 9.252C29.1321 8.836 29.2441 8.332 29.2441 7.74C29.2441 7.204 29.1561 6.748 28.9801 6.372C28.8041 5.988 28.5521 5.68 28.2241 5.448C27.8961 5.216 27.4961 5.048 27.0241 4.944C26.5601 4.84 26.0361 4.796 25.4521 4.812L25.5241 11.04Z" fill="#B56FCF"/>
<path d="M36.5163 8.484C36.4523 8.004 36.2723 7.644 35.9763 7.404C35.6883 7.164 35.3243 7.044 34.8843 7.044C34.3963 7.044 33.9963 7.196 33.6843 7.5C33.3723 7.804 33.2003 8.216 33.1683 8.736L36.5163 8.484ZM34.8483 5.676C35.3603 5.676 35.8083 5.76 36.1923 5.928C36.5843 6.096 36.9163 6.336 37.1883 6.648C37.4603 6.952 37.6683 7.324 37.8123 7.764C37.9643 8.204 38.0523 8.696 38.0763 9.24C38.0843 9.4 38.0603 9.512 38.0043 9.576C37.9483 9.632 37.8443 9.668 37.6923 9.684L33.2763 10.032C33.3323 10.28 33.4363 10.484 33.5883 10.644C33.7483 10.804 33.9363 10.932 34.1523 11.028C34.3683 11.116 34.6043 11.172 34.8603 11.196C35.1243 11.22 35.3843 11.22 35.6403 11.196C35.8963 11.172 36.1443 11.132 36.3843 11.076C36.6243 11.012 36.8323 10.936 37.0083 10.848C37.1203 10.792 37.1963 10.784 37.2363 10.824C37.2763 10.864 37.3043 10.94 37.3203 11.052L37.4043 11.856C37.4203 11.968 37.4083 12.044 37.3683 12.084C37.3363 12.124 37.2643 12.164 37.1523 12.204C36.8083 12.34 36.4483 12.436 36.0723 12.492C35.6963 12.556 35.3603 12.588 35.0643 12.588C34.5203 12.588 34.0363 12.5 33.6123 12.324C33.1963 12.148 32.8443 11.908 32.5563 11.604C32.2683 11.292 32.0483 10.924 31.8963 10.5C31.7523 10.068 31.6803 9.6 31.6803 9.096C31.6803 8.656 31.7483 8.232 31.8843 7.824C32.0283 7.416 32.2323 7.052 32.4963 6.732C32.7683 6.412 33.1003 6.156 33.4923 5.964C33.8843 5.772 34.3363 5.676 34.8483 5.676ZM40.868 12.528C40.732 12.528 40.632 12.508 40.568 12.468C40.512 12.436 40.452 12.332 40.388 12.156L38.264 6.408C38.216 6.264 38.2 6.164 38.216 6.108C38.24 6.044 38.316 5.992 38.444 5.952L39.176 5.676C39.328 5.62 39.432 5.604 39.488 5.628C39.544 5.644 39.592 5.716 39.632 5.844L41.456 10.86L43.268 5.868C43.308 5.74 43.356 5.668 43.412 5.652C43.468 5.628 43.572 5.644 43.724 5.7L44.48 5.952C44.608 5.992 44.68 6.044 44.696 6.108C44.72 6.164 44.708 6.264 44.66 6.408L42.536 12.156C42.472 12.332 42.408 12.436 42.344 12.468C42.288 12.508 42.192 12.528 42.056 12.528H40.868ZM49.9343 8.484C49.8703 8.004 49.6903 7.644 49.3943 7.404C49.1063 7.164 48.7423 7.044 48.3023 7.044C47.8143 7.044 47.4143 7.196 47.1023 7.5C46.7903 7.804 46.6183 8.216 46.5863 8.736L49.9343 8.484ZM48.2663 5.676C48.7783 5.676 49.2263 5.76 49.6103 5.928C50.0023 6.096 50.3343 6.336 50.6063 6.648C50.8783 6.952 51.0863 7.324 51.2303 7.764C51.3823 8.204 51.4703 8.696 51.4943 9.24C51.5023 9.4 51.4783 9.512 51.4223 9.576C51.3663 9.632 51.2623 9.668 51.1103 9.684L46.6943 10.032C46.7503 10.28 46.8543 10.484 47.0063 10.644C47.1663 10.804 47.3543 10.932 47.5703 11.028C47.7863 11.116 48.0223 11.172 48.2783 11.196C48.5423 11.22 48.8023 11.22 49.0583 11.196C49.3143 11.172 49.5623 11.132 49.8023 11.076C50.0423 11.012 50.2503 10.936 50.4263 10.848C50.5383 10.792 50.6143 10.784 50.6543 10.824C50.6943 10.864 50.7223 10.94 50.7383 11.052L50.8223 11.856C50.8383 11.968 50.8263 12.044 50.7863 12.084C50.7543 12.124 50.6823 12.164 50.5703 12.204C50.2263 12.34 49.8663 12.436 49.4903 12.492C49.1143 12.556 48.7783 12.588 48.4823 12.588C47.9383 12.588 47.4543 12.5 47.0303 12.324C46.6143 12.148 46.2623 11.908 45.9743 11.604C45.6863 11.292 45.4663 10.924 45.3143 10.5C45.1703 10.068 45.0983 9.6 45.0983 9.096C45.0983 8.656 45.1663 8.232 45.3023 7.824C45.4463 7.416 45.6503 7.052 45.9143 6.732C46.1863 6.412 46.5183 6.156 46.9103 5.964C47.3023 5.772 47.7543 5.676 48.2663 5.676ZM52.2552 3.72C52.2552 3.592 52.2792 3.504 52.3272 3.456C52.3752 3.408 52.4672 3.384 52.6032 3.384H53.4192C53.5552 3.384 53.6472 3.408 53.6952 3.456C53.7432 3.504 53.7672 3.592 53.7672 3.72V12.18C53.7672 12.308 53.7432 12.396 53.6952 12.444C53.6472 12.492 53.5552 12.516 53.4192 12.516H52.6032C52.4672 12.516 52.3752 12.492 52.3272 12.444C52.2792 12.396 52.2552 12.308 52.2552 12.18V3.72ZM67.0423 8.856C67.0423 8.496 66.9703 8.2 66.8263 7.968C66.6823 7.728 66.4783 7.536 66.2143 7.392C65.9503 7.248 65.6303 7.148 65.2543 7.092C64.8863 7.028 64.4743 6.996 64.0183 6.996V11.004C64.4743 10.988 64.8863 10.936 65.2543 10.848C65.6303 10.752 65.9503 10.62 66.2143 10.452C66.4783 10.276 66.6823 10.056 66.8263 9.792C66.9703 9.528 67.0423 9.216 67.0423 8.856ZM62.5063 5.964C62.5063 5.836 62.5303 5.748 62.5783 5.7C62.6263 5.652 62.7183 5.628 62.8543 5.628H64.0183C64.5623 5.628 65.1023 5.668 65.6383 5.748C66.1823 5.828 66.6703 5.988 67.1023 6.228C67.5343 6.46 67.8823 6.796 68.1463 7.236C68.4183 7.668 68.5543 8.24 68.5543 8.952C68.5543 9.552 68.4223 10.072 68.1583 10.512C67.9023 10.944 67.5623 11.3 67.1383 11.58C66.7143 11.86 66.2303 12.068 65.6863 12.204C65.1423 12.34 64.5863 12.404 64.0183 12.396V14.424C64.0183 14.552 63.9943 14.64 63.9463 14.688C63.8983 14.736 63.8063 14.76 63.6703 14.76H62.8543C62.7183 14.76 62.6263 14.736 62.5783 14.688C62.5303 14.64 62.5063 14.552 62.5063 14.424V5.964ZM74.3445 8.484C74.2805 8.004 74.1005 7.644 73.8045 7.404C73.5165 7.164 73.1525 7.044 72.7125 7.044C72.2245 7.044 71.8245 7.196 71.5125 7.5C71.2005 7.804 71.0285 8.216 70.9965 8.736L74.3445 8.484ZM72.6765 5.676C73.1885 5.676 73.6365 5.76 74.0205 5.928C74.4125 6.096 74.7445 6.336 75.0165 6.648C75.2885 6.952 75.4965 7.324 75.6405 7.764C75.7925 8.204 75.8805 8.696 75.9045 9.24C75.9125 9.4 75.8885 9.512 75.8325 9.576C75.7765 9.632 75.6725 9.668 75.5205 9.684L71.1045 10.032C71.1605 10.28 71.2645 10.484 71.4165 10.644C71.5765 10.804 71.7645 10.932 71.9805 11.028C72.1965 11.116 72.4325 11.172 72.6885 11.196C72.9525 11.22 73.2125 11.22 73.4685 11.196C73.7245 11.172 73.9725 11.132 74.2125 11.076C74.4525 11.012 74.6605 10.936 74.8365 10.848C74.9485 10.792 75.0245 10.784 75.0645 10.824C75.1045 10.864 75.1325 10.94 75.1485 11.052L75.2325 11.856C75.2485 11.968 75.2365 12.044 75.1965 12.084C75.1645 12.124 75.0925 12.164 74.9805 12.204C74.6365 12.34 74.2765 12.436 73.9005 12.492C73.5245 12.556 73.1885 12.588 72.8925 12.588C72.3485 12.588 71.8645 12.5 71.4405 12.324C71.0245 12.148 70.6725 11.908 70.3845 11.604C70.0965 11.292 69.8765 10.924 69.7245 10.5C69.5805 10.068 69.5085 9.6 69.5085 9.096C69.5085 8.656 69.5765 8.232 69.7125 7.824C69.8565 7.416 70.0605 7.052 70.3245 6.732C70.5965 6.412 70.9285 6.156 71.3205 5.964C71.7125 5.772 72.1645 5.676 72.6765 5.676ZM76.7914 6.552C76.7914 6.432 76.7954 6.336 76.8034 6.264C76.8114 6.184 76.8314 6.124 76.8634 6.084C76.9034 6.044 76.9554 6.012 77.0194 5.988C77.0834 5.964 77.1674 5.944 77.2714 5.928C77.5674 5.888 77.8994 5.852 78.2674 5.82C78.6434 5.788 79.0154 5.768 79.3834 5.76C79.7514 5.744 80.0954 5.736 80.4154 5.736C80.7434 5.736 81.0034 5.748 81.1954 5.772C81.3314 5.788 81.4154 5.816 81.4474 5.856C81.4794 5.888 81.4914 5.972 81.4834 6.108L81.4474 6.78C81.4394 6.948 81.4154 7.052 81.3754 7.092C81.3354 7.124 81.2274 7.136 81.0514 7.128C80.9314 7.128 80.7554 7.132 80.5234 7.14C80.2914 7.148 80.0434 7.16 79.7794 7.176C79.5234 7.184 79.2674 7.2 79.0114 7.224C78.7554 7.24 78.5434 7.26 78.3754 7.284L78.3994 12.18C78.3994 12.308 78.3754 12.396 78.3274 12.444C78.2794 12.492 78.1874 12.516 78.0514 12.516H77.2354C77.0994 12.516 77.0074 12.492 76.9594 12.444C76.9114 12.396 76.8874 12.308 76.8874 12.18L76.7914 6.552ZM97.9929 8.484C97.9289 8.004 97.7489 7.644 97.4529 7.404C97.1649 7.164 96.8009 7.044 96.3609 7.044C95.8729 7.044 95.4729 7.196 95.1609 7.5C94.8489 7.804 94.6769 8.216 94.6449 8.736L97.9929 8.484ZM96.3249 5.676C96.8369 5.676 97.2849 5.76 97.6689 5.928C98.0609 6.096 98.3929 6.336 98.6649 6.648C98.9369 6.952 99.1449 7.324 99.2889 7.764C99.4409 8.204 99.5289 8.696 99.5529 9.24C99.5609 9.4 99.5369 9.512 99.4809 9.576C99.4249 9.632 99.3209 9.668 99.1689 9.684L94.7529 10.032C94.8089 10.28 94.9129 10.484 95.0649 10.644C95.2249 10.804 95.4129 10.932 95.6289 11.028C95.8449 11.116 96.0809 11.172 96.3369 11.196C96.6009 11.22 96.8609 11.22 97.1169 11.196C97.3729 11.172 97.6209 11.132 97.8609 11.076C98.1009 11.012 98.3089 10.936 98.4849 10.848C98.5969 10.792 98.6729 10.784 98.7129 10.824C98.7529 10.864 98.7809 10.94 98.7969 11.052L98.8809 11.856C98.8969 11.968 98.8849 12.044 98.8449 12.084C98.8129 12.124 98.7409 12.164 98.6289 12.204C98.2849 12.34 97.9249 12.436 97.5489 12.492C97.1729 12.556 96.8369 12.588 96.5409 12.588C95.9969 12.588 95.5129 12.5 95.0889 12.324C94.6729 12.148 94.3209 11.908 94.0329 11.604C93.7449 11.292 93.5249 10.924 93.3729 10.5C93.2289 10.068 93.1569 9.6 93.1569 9.096C93.1569 8.656 93.2249 8.232 93.3609 7.824C93.5049 7.416 93.7089 7.052 93.9729 6.732C94.2449 6.412 94.5769 6.156 94.9689 5.964C95.3609 5.772 95.8129 5.676 96.3249 5.676ZM101.046 10.824C101.342 10.944 101.658 11.048 101.994 11.136C102.33 11.216 102.642 11.256 102.93 11.256C103.266 11.256 103.55 11.208 103.782 11.112C104.022 11.016 104.142 10.856 104.142 10.632C104.142 10.512 104.094 10.408 103.998 10.32C103.902 10.232 103.778 10.152 103.626 10.08C103.474 10.008 103.302 9.94 103.11 9.876C102.918 9.812 102.722 9.744 102.522 9.672C102.266 9.584 102.01 9.484 101.754 9.372C101.506 9.26 101.282 9.128 101.082 8.976C100.89 8.816 100.73 8.632 100.602 8.424C100.482 8.208 100.422 7.96 100.422 7.68C100.422 7.456 100.466 7.224 100.554 6.984C100.65 6.744 100.806 6.528 101.022 6.336C101.246 6.144 101.534 5.988 101.886 5.868C102.246 5.74 102.69 5.676 103.218 5.676C103.698 5.676 104.102 5.716 104.43 5.796C104.758 5.876 105.066 5.988 105.354 6.132C105.442 6.172 105.498 6.22 105.522 6.276C105.554 6.332 105.566 6.408 105.558 6.504L105.51 7.296C105.502 7.416 105.474 7.488 105.426 7.512C105.386 7.536 105.31 7.52 105.198 7.464C104.966 7.344 104.698 7.24 104.394 7.152C104.098 7.056 103.746 7.008 103.338 7.008C102.954 7.008 102.638 7.064 102.39 7.176C102.15 7.288 102.03 7.46 102.03 7.692C102.03 7.836 102.09 7.96 102.21 8.064C102.33 8.16 102.486 8.248 102.678 8.328C102.87 8.408 103.086 8.488 103.326 8.568C103.566 8.64 103.806 8.724 104.046 8.82C104.294 8.916 104.518 9.024 104.718 9.144C104.926 9.256 105.106 9.388 105.258 9.54C105.41 9.684 105.526 9.852 105.606 10.044C105.694 10.236 105.738 10.452 105.738 10.692C105.738 11.292 105.498 11.756 105.018 12.084C104.546 12.42 103.91 12.588 103.11 12.588C102.566 12.588 102.114 12.544 101.754 12.456C101.402 12.376 101.066 12.256 100.746 12.096C100.658 12.048 100.606 11.992 100.59 11.928C100.582 11.856 100.586 11.76 100.602 11.64L100.722 11.016C100.738 10.904 100.766 10.836 100.806 10.812C100.854 10.78 100.934 10.784 101.046 10.824ZM106.791 4.224C106.791 3.952 106.883 3.724 107.067 3.54C107.259 3.356 107.495 3.264 107.775 3.264C108.055 3.264 108.295 3.356 108.495 3.54C108.695 3.724 108.795 3.952 108.795 4.224C108.795 4.504 108.695 4.736 108.495 4.92C108.295 5.096 108.055 5.184 107.775 5.184C107.495 5.184 107.259 5.096 107.067 4.92C106.883 4.736 106.791 4.504 106.791 4.224ZM107.067 6.528C107.067 6.4 107.091 6.312 107.139 6.264C107.187 6.208 107.279 6.18 107.415 6.18H108.231C108.367 6.18 108.459 6.208 108.507 6.264C108.555 6.312 108.579 6.4 108.579 6.528V12.18C108.579 12.308 108.555 12.396 108.507 12.444C108.459 12.492 108.367 12.516 108.231 12.516H107.415C107.279 12.516 107.187 12.492 107.139 12.444C107.091 12.396 107.067 12.308 107.067 12.18V6.528ZM111.334 9.288C111.334 9.648 111.406 9.948 111.55 10.188C111.694 10.428 111.898 10.62 112.162 10.764C112.426 10.908 112.742 11.008 113.11 11.064C113.486 11.12 113.902 11.148 114.358 11.148V7.14C113.902 7.156 113.486 7.212 113.11 7.308C112.742 7.396 112.426 7.528 112.162 7.704C111.898 7.88 111.694 8.1 111.55 8.364C111.406 8.62 111.334 8.928 111.334 9.288ZM115.87 12.18C115.87 12.308 115.846 12.396 115.798 12.444C115.75 12.492 115.658 12.516 115.522 12.516H114.358C113.814 12.516 113.27 12.476 112.726 12.396C112.19 12.316 111.706 12.16 111.274 11.928C110.842 11.688 110.49 11.352 110.218 10.92C109.954 10.48 109.822 9.904 109.822 9.192C109.822 8.592 109.95 8.076 110.206 7.644C110.47 7.204 110.814 6.844 111.238 6.564C111.662 6.284 112.146 6.076 112.69 5.94C113.234 5.804 113.79 5.74 114.358 5.748V3.72C114.358 3.592 114.382 3.504 114.43 3.456C114.478 3.408 114.57 3.384 114.706 3.384H115.522C115.658 3.384 115.75 3.408 115.798 3.456C115.846 3.504 115.87 3.592 115.87 3.72V12.18ZM121.641 8.484C121.577 8.004 121.397 7.644 121.101 7.404C120.813 7.164 120.449 7.044 120.009 7.044C119.521 7.044 119.121 7.196 118.809 7.5C118.497 7.804 118.325 8.216 118.293 8.736L121.641 8.484ZM119.973 5.676C120.485 5.676 120.933 5.76 121.317 5.928C121.709 6.096 122.041 6.336 122.313 6.648C122.585 6.952 122.793 7.324 122.937 7.764C123.089 8.204 123.177 8.696 123.201 9.24C123.209 9.4 123.185 9.512 123.129 9.576C123.073 9.632 122.969 9.668 122.817 9.684L118.401 10.032C118.457 10.28 118.561 10.484 118.713 10.644C118.873 10.804 119.061 10.932 119.277 11.028C119.493 11.116 119.729 11.172 119.985 11.196C120.249 11.22 120.509 11.22 120.765 11.196C121.021 11.172 121.269 11.132 121.509 11.076C121.749 11.012 121.957 10.936 122.133 10.848C122.245 10.792 122.321 10.784 122.361 10.824C122.401 10.864 122.429 10.94 122.445 11.052L122.529 11.856C122.545 11.968 122.533 12.044 122.493 12.084C122.461 12.124 122.389 12.164 122.277 12.204C121.933 12.34 121.573 12.436 121.197 12.492C120.821 12.556 120.485 12.588 120.189 12.588C119.645 12.588 119.161 12.5 118.737 12.324C118.321 12.148 117.969 11.908 117.681 11.604C117.393 11.292 117.173 10.924 117.021 10.5C116.877 10.068 116.805 9.6 116.805 9.096C116.805 8.656 116.873 8.232 117.009 7.824C117.153 7.416 117.357 7.052 117.621 6.732C117.893 6.412 118.225 6.156 118.617 5.964C119.009 5.772 119.461 5.676 119.973 5.676ZM138.003 9.12C138.003 9.424 138.043 9.7 138.123 9.948C138.203 10.196 138.319 10.408 138.471 10.584C138.623 10.76 138.803 10.9 139.011 11.004C139.219 11.1 139.455 11.148 139.719 11.148C139.983 11.148 140.219 11.1 140.427 11.004C140.643 10.9 140.823 10.76 140.967 10.584C141.119 10.408 141.235 10.196 141.315 9.948C141.403 9.7 141.447 9.424 141.447 9.12C141.447 8.824 141.403 8.552 141.315 8.304C141.235 8.048 141.119 7.832 140.967 7.656C140.823 7.48 140.643 7.344 140.427 7.248C140.219 7.144 139.983 7.092 139.719 7.092C139.455 7.092 139.219 7.144 139.011 7.248C138.803 7.344 138.623 7.48 138.471 7.656C138.319 7.832 138.203 8.048 138.123 8.304C138.043 8.552 138.003 8.824 138.003 9.12ZM136.587 9.12C136.587 8.624 136.659 8.168 136.803 7.752C136.955 7.328 137.167 6.964 137.439 6.66C137.711 6.348 138.039 6.108 138.423 5.94C138.807 5.764 139.239 5.676 139.719 5.676C140.199 5.676 140.631 5.764 141.015 5.94C141.407 6.108 141.735 6.348 141.999 6.66C142.271 6.964 142.479 7.328 142.623 7.752C142.775 8.168 142.851 8.624 142.851 9.12C142.851 9.616 142.775 10.076 142.623 10.5C142.479 10.924 142.271 11.288 141.999 11.592C141.735 11.896 141.407 12.132 141.015 12.3C140.631 12.476 140.199 12.564 139.719 12.564C139.239 12.564 138.807 12.476 138.423 12.3C138.039 12.132 137.711 11.896 137.439 11.592C137.167 11.288 136.955 10.924 136.803 10.5C136.659 10.076 136.587 9.616 136.587 9.12ZM145.442 9.168C145.434 9.56 145.438 9.884 145.454 10.14C145.478 10.396 145.538 10.596 145.634 10.74C145.738 10.884 145.89 10.984 146.09 11.04C146.29 11.088 146.566 11.108 146.918 11.1L148.466 11.064L148.526 6.084C148.526 5.956 148.55 5.868 148.598 5.82C148.654 5.772 148.75 5.748 148.886 5.748H149.762C149.898 5.748 149.99 5.772 150.038 5.82C150.086 5.868 150.11 5.956 150.11 6.084L150.026 11.916C150.018 12.132 149.986 12.268 149.93 12.324C149.882 12.388 149.782 12.424 149.63 12.432C149.222 12.464 148.722 12.484 148.13 12.492C147.538 12.508 146.886 12.516 146.174 12.516C145.734 12.516 145.358 12.432 145.046 12.264C144.742 12.104 144.498 11.892 144.314 11.628C144.13 11.364 143.998 11.064 143.918 10.728C143.846 10.392 143.818 10.048 143.834 9.696L143.99 6.084C143.99 5.956 144.014 5.868 144.062 5.82C144.118 5.772 144.214 5.748 144.35 5.748H145.226C145.362 5.748 145.454 5.772 145.502 5.82C145.55 5.868 145.574 5.956 145.574 6.084L145.442 9.168Z" fill="#535355"/>
<path d="M56.4401 9.12C56.4401 9.424 56.4801 9.7 56.5601 9.948C56.6401 10.196 56.7561 10.408 56.9081 10.584C57.0601 10.76 57.2401 10.9 57.4481 11.004C57.6561 11.1 57.8921 11.148 58.1561 11.148C58.4201 11.148 58.6561 11.1 58.8641 11.004C59.0801 10.9 59.2601 10.76 59.4041 10.584C59.5561 10.408 59.6721 10.196 59.7521 9.948C59.8401 9.7 59.8841 9.424 59.8841 9.12C59.8841 8.824 59.8401 8.552 59.7521 8.304C59.6721 8.048 59.5561 7.832 59.4041 7.656C59.2601 7.48 59.0801 7.344 58.8641 7.248C58.6561 7.144 58.4201 7.092 58.1561 7.092C57.8921 7.092 57.6561 7.144 57.4481 7.248C57.2401 7.344 57.0601 7.48 56.9081 7.656C56.7561 7.832 56.6401 8.048 56.5601 8.304C56.4801 8.552 56.4401 8.824 56.4401 9.12ZM55.0241 9.12C55.0241 8.624 55.0961 8.168 55.2401 7.752C55.3921 7.328 55.6041 6.964 55.8761 6.66C56.1481 6.348 56.4761 6.108 56.8601 5.94C57.2441 5.764 57.6761 5.676 58.1561 5.676C58.6361 5.676 59.0681 5.764 59.4521 5.94C59.8441 6.108 60.1721 6.348 60.4361 6.66C60.7081 6.964 60.9161 7.328 61.0601 7.752C61.2121 8.168 61.2881 8.624 61.2881 9.12C61.2881 9.616 61.2121 10.076 61.0601 10.5C60.9161 10.924 60.7081 11.288 60.4361 11.592C60.1721 11.896 59.8441 12.132 59.4521 12.3C59.0681 12.476 58.6361 12.564 58.1561 12.564C57.6761 12.564 57.2441 12.476 56.8601 12.3C56.4761 12.132 56.1481 11.896 55.8761 11.592C55.6041 11.288 55.3921 10.924 55.2401 10.5C55.0961 10.076 55.0241 9.616 55.0241 9.12Z" fill="#FA7373"/>
<path d="M85.672 4.02C85.664 3.828 85.68 3.704 85.72 3.648C85.768 3.584 85.876 3.532 86.044 3.492C86.236 3.452 86.412 3.42 86.572 3.396C86.732 3.364 86.884 3.34 87.028 3.324C87.18 3.308 87.328 3.296 87.472 3.288C87.616 3.28 87.768 3.272 87.928 3.264C88.384 3.248 88.828 3.276 89.26 3.348C89.692 3.412 90.08 3.536 90.424 3.72C90.768 3.896 91.048 4.14 91.264 4.452C91.488 4.756 91.62 5.14 91.66 5.604C91.684 5.964 91.636 6.3 91.516 6.612C91.396 6.916 91.164 7.168 90.82 7.368C91.044 7.448 91.244 7.568 91.42 7.728C91.596 7.88 91.744 8.06 91.864 8.268C91.992 8.468 92.088 8.688 92.152 8.928C92.216 9.168 92.252 9.416 92.26 9.672C92.268 10.096 92.192 10.464 92.032 10.776C91.88 11.08 91.664 11.336 91.384 11.544C91.112 11.752 90.788 11.92 90.412 12.048C90.036 12.176 89.628 12.272 89.188 12.336C88.756 12.408 88.304 12.452 87.832 12.468C87.368 12.492 86.904 12.504 86.44 12.504C86.232 12.504 86.092 12.468 86.02 12.396C85.956 12.332 85.92 12.184 85.912 11.952L85.672 4.02ZM87.364 11.088C88.524 11.088 89.38 10.976 89.932 10.752C90.484 10.52 90.752 10.16 90.736 9.672C90.72 9.384 90.624 9.16 90.448 9C90.28 8.832 90.044 8.708 89.74 8.628C89.444 8.548 89.088 8.512 88.672 8.52C88.256 8.52 87.8 8.544 87.304 8.592L87.364 11.088ZM87.244 7.296C87.7 7.288 88.108 7.264 88.468 7.224C88.836 7.184 89.144 7.112 89.392 7.008C89.64 6.904 89.828 6.764 89.956 6.588C90.092 6.404 90.16 6.168 90.16 5.88C90.16 5.352 89.904 4.98 89.392 4.764C88.888 4.54 88.152 4.488 87.184 4.608L87.244 7.296Z" fill="#6FA6F4"/>
<path d="M128.19 3.432C128.286 3.36 128.366 3.328 128.43 3.336C128.494 3.344 128.566 3.392 128.646 3.48L131.574 7.116L134.49 3.504C134.57 3.416 134.642 3.368 134.706 3.36C134.77 3.352 134.85 3.384 134.946 3.456L135.594 3.912C135.722 4 135.782 4.08 135.774 4.152C135.774 4.224 135.726 4.32 135.63 4.44L132.63 8.148C132.534 8.276 132.458 8.4 132.402 8.52C132.354 8.64 132.33 8.8 132.33 9V12.18C132.33 12.308 132.306 12.396 132.258 12.444C132.21 12.492 132.118 12.516 131.982 12.516H131.166C131.03 12.516 130.938 12.492 130.89 12.444C130.842 12.396 130.818 12.308 130.818 12.18V9C130.818 8.8 130.79 8.64 130.734 8.52C130.686 8.4 130.614 8.276 130.518 8.148L127.518 4.44C127.422 4.32 127.37 4.224 127.362 4.152C127.362 4.08 127.426 4 127.554 3.912L128.19 3.432Z" fill="#FACC57"/>
<path d="M151.587 11.844C151.587 11.612 151.663 11.424 151.815 11.28C151.975 11.128 152.179 11.052 152.427 11.052C152.659 11.052 152.855 11.128 153.015 11.28C153.175 11.424 153.255 11.612 153.255 11.844C153.255 12.076 153.175 12.264 153.015 12.408C152.855 12.552 152.659 12.624 152.427 12.624C152.179 12.624 151.975 12.552 151.815 12.408C151.663 12.264 151.587 12.076 151.587 11.844ZM151.695 3.72C151.695 3.592 151.719 3.504 151.767 3.456C151.815 3.408 151.907 3.384 152.043 3.384H152.859C152.995 3.384 153.087 3.408 153.135 3.456C153.183 3.504 153.207 3.592 153.207 3.72V9.792C153.207 9.92 153.183 10.008 153.135 10.056C153.087 10.104 152.995 10.128 152.859 10.128H152.043C151.907 10.128 151.815 10.104 151.767 10.056C151.719 10.008 151.695 9.92 151.695 9.792V3.72Z" fill="#EA83A8"/>
</svg>
