<svg width="16" height="16" viewBox="0 0 16 16" fill="none" xmlns="http://www.w3.org/2000/svg">
<path d="M9.82727 0.718751C9.89298 0.718633 9.95806 0.731467 10.0188 0.756519C10.0795 0.781571 10.1348 0.818349 10.1813 0.864751L15.1313 5.81475C15.225 5.90851 15.2777 6.03567 15.2777 6.16825C15.2777 6.30083 15.225 6.42799 15.1313 6.52175C14.6513 7.00175 14.0593 7.10975 13.6283 7.10975C13.4513 7.10975 13.2933 7.09175 13.1683 7.07075L10.0343 10.2048C10.1168 10.5372 10.1703 10.8761 10.1943 11.2178C10.2403 11.9198 10.1623 12.9048 9.47427 13.5928C9.38051 13.6865 9.25335 13.7391 9.12077 13.7391C8.98819 13.7391 8.86104 13.6865 8.76727 13.5928L5.93827 10.7648L2.75627 13.9468C2.56127 14.1418 1.53727 14.8488 1.34227 14.6538C1.14727 14.4588 1.85427 13.4338 2.04927 13.2398L5.23127 10.0578L2.40327 7.22875C2.30954 7.13499 2.25688 7.00783 2.25688 6.87525C2.25688 6.74267 2.30954 6.61551 2.40327 6.52175C3.09127 5.83375 4.07627 5.75475 4.77827 5.80175C5.11993 5.82569 5.45887 5.87922 5.79127 5.96175L8.92527 2.82875C8.89911 2.67647 8.88573 2.52226 8.88527 2.36775C8.88527 1.93775 8.99327 1.34575 9.47427 0.864751C9.56798 0.771282 9.69492 0.718779 9.82727 0.718751Z" fill="black"/>
</svg>
