<svg width="28" height="25" viewBox="0 0 28 25" fill="none" xmlns="http://www.w3.org/2000/svg">
<path d="M13.5156 12.5C14.8598 12.5 16.149 12.0061 17.0995 11.1271C18.05 10.248 18.584 9.0557 18.584 7.8125C18.584 6.5693 18.05 5.37701 17.0995 4.49794C16.149 3.61886 14.8598 3.125 13.5156 3.125C12.1714 3.125 10.8823 3.61886 9.93175 4.49794C8.98125 5.37701 8.44727 6.5693 8.44727 7.8125C8.44727 9.0557 8.98125 10.248 9.93175 11.1271C10.8823 12.0061 12.1714 12.5 13.5156 12.5ZM16.8945 7.8125C16.8945 8.6413 16.5385 9.43616 15.9049 10.0222C15.2712 10.6083 14.4118 10.9375 13.5156 10.9375C12.6195 10.9375 11.76 10.6083 11.1264 10.0222C10.4927 9.43616 10.1367 8.6413 10.1367 7.8125C10.1367 6.9837 10.4927 6.18884 11.1264 5.60279C11.76 5.01674 12.6195 4.6875 13.5156 4.6875C14.4118 4.6875 15.2712 5.01674 15.9049 5.60279C16.5385 6.18884 16.8945 6.9837 16.8945 7.8125ZM23.6523 20.3125C23.6523 21.875 21.9629 21.875 21.9629 21.875H5.06836C5.06836 21.875 3.37891 21.875 3.37891 20.3125C3.37891 18.75 5.06836 14.0625 13.5156 14.0625C21.9629 14.0625 23.6523 18.75 23.6523 20.3125ZM21.9629 20.3062C21.9612 19.9219 21.7027 18.7656 20.5573 17.7062C19.4557 16.6875 17.3828 15.625 13.5156 15.625C9.64678 15.625 7.57551 16.6875 6.47398 17.7062C5.32854 18.7656 5.07174 19.9219 5.06836 20.3062H21.9629Z" fill="black"/>
</svg>
