<svg width="60" height="60" viewBox="0 0 60 60" fill="none" xmlns="http://www.w3.org/2000/svg">
<path d="M28.7887 54.7305L29.4375 53.6347L26.2102 51.7247L25.5617 52.8205L28.7887 54.7305ZM20.5664 53.6347L21.215 54.7305L24.4421 52.8205L23.7935 51.7247L20.5664 53.6347ZM25.5617 52.8205C25.4482 53.0123 25.25 53.125 25.0019 53.125C24.7538 53.125 24.5556 53.0123 24.4421 52.8205L21.215 54.7305C22.9074 57.5898 27.0965 57.5898 28.7887 54.7305L25.5617 52.8205ZM22.002 16.875H28.002V13.125H22.002V16.875ZM43.127 32V34H46.877V32H43.127ZM6.87695 34V32H3.12695V34H6.87695ZM3.12695 34C3.12695 36.3043 3.12593 38.126 3.22645 39.5992C3.32813 41.0892 3.53988 42.359 4.03088 43.5445L7.49543 42.1095C7.22523 41.457 7.0564 40.6433 6.96775 39.344C6.87798 38.028 6.87695 36.3555 6.87695 34H3.12695ZM15.7852 47.0885C13.8045 47.025 12.7281 46.8527 11.8927 46.5067L10.4576 49.9713C11.9498 50.5893 13.5956 50.7703 15.6653 50.8365L15.7852 47.0885ZM4.03088 43.5445C5.23613 46.4543 7.54788 48.766 10.4576 49.9713L11.8927 46.5067C9.9018 45.682 8.32008 44.1002 7.49543 42.1095L4.03088 43.5445ZM43.127 34C43.127 36.3555 43.126 38.028 43.0362 39.344C42.9475 40.6433 42.7787 41.457 42.5085 42.1095L45.973 43.5445C46.464 42.359 46.6757 41.0892 46.7775 39.5992C46.878 38.126 46.877 36.3043 46.877 34H43.127ZM34.3385 50.8365C36.4082 50.7703 38.0542 50.5893 39.5462 49.9713L38.1112 46.5067C37.2757 46.8527 36.1995 47.025 34.2187 47.0885L34.3385 50.8365ZM42.5085 42.1095C41.684 44.1002 40.1022 45.682 38.1112 46.5067L39.5462 49.9713C42.456 48.766 44.7677 46.4543 45.973 43.5445L42.5085 42.1095ZM28.002 16.875C31.3117 16.875 33.6622 16.877 35.4902 17.0508C37.2905 17.2219 38.389 17.5464 39.2472 18.0723L41.2067 14.8749C39.6602 13.9272 37.9197 13.5149 35.8452 13.3176C33.7987 13.123 31.2392 13.125 28.002 13.125V16.875ZM46.877 32C46.877 28.763 46.879 26.2035 46.6845 24.1568C46.4872 22.0822 46.0747 20.3418 45.127 18.7954L41.9297 20.7547C42.4555 21.613 42.78 22.7117 42.9512 24.5117C43.125 26.3398 43.127 28.6903 43.127 32H46.877ZM39.2472 18.0723C40.3405 18.7423 41.2597 19.6615 41.9297 20.7547L45.127 18.7954C44.148 17.1975 42.8045 15.8541 41.2067 14.8749L39.2472 18.0723ZM22.002 13.125C18.7648 13.125 16.2053 13.123 14.1587 13.3176C12.0841 13.5149 10.3438 13.9272 8.79728 14.8749L10.7567 18.0723C11.6149 17.5464 12.7136 17.2219 14.5136 17.0508C16.3416 16.877 18.6922 16.875 22.002 16.875V13.125ZM6.87695 32C6.87695 28.6903 6.87893 26.3398 7.05273 24.5117C7.22388 22.7117 7.54833 21.613 8.07425 20.7547L4.87685 18.7954C3.92918 20.3418 3.51683 22.0822 3.31958 24.1568C3.12498 26.2035 3.12695 28.763 3.12695 32H6.87695ZM8.79728 14.8749C7.19943 15.8541 5.856 17.1975 4.87685 18.7954L8.07425 20.7547C8.7442 19.6615 9.6634 18.7423 10.7567 18.0723L8.79728 14.8749ZM23.7935 51.7247C23.2915 50.8765 22.8512 50.129 22.4242 49.541C21.9749 48.9225 21.4601 48.3635 20.7475 47.942L18.8383 51.1697C18.9536 51.2377 19.1126 51.3628 19.3901 51.7448C19.6897 52.1575 20.029 52.7267 20.5664 53.6347L23.7935 51.7247ZM15.6653 50.8365C16.7789 50.8723 17.4908 50.8967 18.0315 50.9627C18.5427 51.025 18.7346 51.1082 18.8383 51.1697L20.7475 47.942C20.0233 47.5137 19.2612 47.3347 18.4856 47.2402C17.7394 47.1492 16.8314 47.122 15.7852 47.0885L15.6653 50.8365ZM29.4375 53.6347C29.9747 52.7267 30.3142 52.1575 30.6137 51.7448C30.8912 51.3628 31.0502 51.2377 31.1655 51.1697L29.2565 47.942C28.5437 48.3635 28.029 48.9225 27.5797 49.541C27.1527 50.129 26.7122 50.8765 26.2102 51.7247L29.4375 53.6347ZM34.2187 47.0885C33.1725 47.122 32.2645 47.1492 31.5182 47.2402C30.7427 47.3347 29.9805 47.5137 29.2565 47.942L31.1655 51.1697C31.2692 51.1082 31.4612 51.025 31.9722 50.9627C32.513 50.8967 33.225 50.8723 34.3385 50.8365L34.2187 47.0885Z" fill="black"/>
<path d="M33.4396 6.88281H39.0646V3.13281H33.4396V6.88281ZM53.1271 20.9454V22.8204H56.8771V20.9454H53.1271ZM53.1271 22.8204C53.1271 25.0301 53.1261 26.5936 53.0423 27.8223C52.9596 29.0343 52.8026 29.7831 52.5563 30.3781L56.0208 31.8131C56.4881 30.6851 56.6878 29.4806 56.7836 28.0776C56.8783 26.6916 56.8771 24.9788 56.8771 22.8204H53.1271ZM52.5563 30.3781C51.7951 32.2158 50.3351 33.6758 48.4973 34.4371L49.9323 37.9016C52.6891 36.7598 54.8791 34.5696 56.0208 31.8131L52.5563 30.3781ZM39.0646 6.88281C42.1698 6.88281 44.3671 6.88479 46.0738 7.04709C47.7528 7.20671 48.7628 7.50814 49.5458 7.98801L51.5053 4.79061C50.0341 3.88899 48.3823 3.49966 46.4288 3.31391C44.5033 3.13084 42.0973 3.13281 39.0646 3.13281V6.88281ZM56.8771 20.9454C56.8771 17.9128 56.8791 15.5068 56.6961 13.5812C56.5103 11.6277 56.1211 9.97604 55.2193 8.50471L52.0221 10.4641C52.5018 11.2472 52.8033 12.2571 52.9628 13.9361C53.1253 15.643 53.1271 17.8402 53.1271 20.9454H56.8771ZM49.5458 7.98801C50.5551 8.60644 51.4036 9.45491 52.0221 10.4641L55.2193 8.50471C54.2918 6.99096 53.0191 5.71824 51.5053 4.79061L49.5458 7.98801ZM33.4396 3.13281C30.4071 3.13281 28.0011 3.13084 26.0756 3.31391C24.1221 3.49966 22.4704 3.88899 20.9991 4.79061L22.9585 7.98801C23.7415 7.50814 24.7515 7.20671 26.4306 7.04709C28.1373 6.88479 30.3346 6.88281 33.4396 6.88281V3.13281ZM20.9991 4.79061C19.4853 5.71824 18.2126 6.99096 17.285 8.50471L20.4824 10.4641C21.1008 9.45491 21.9493 8.60644 22.9585 7.98801L20.9991 4.79061ZM19.4578 15.1052C19.5827 12.7043 19.895 11.4227 20.4824 10.4641L17.285 8.50471C16.1922 10.288 15.846 12.3507 15.7129 14.9104L19.4578 15.1052ZM45.0646 38.7198C46.9813 38.6561 48.5258 38.4843 49.9323 37.9016L48.4973 34.4371C47.7423 34.7498 46.7621 34.9113 44.9401 34.9721L45.0646 38.7198Z" fill="black"/>
<path d="M16.2754 32.5156H16.2979ZM25.0022 32.5156H25.0247ZM33.7297 32.5156H33.7522Z" fill="black"/>
<path d="M16.2754 32.5156H16.2979M25.0022 32.5156H25.0247M33.7297 32.5156H33.7522" stroke="black" stroke-width="3.5" stroke-linecap="round" stroke-linejoin="round"/>
</svg>
