<svg width="25" height="23" viewBox="0 0 25 23" fill="none" xmlns="http://www.w3.org/2000/svg">
<path d="M12.5 22.9062L11.2188 21.75C9.01525 19.7266 7.19354 17.9812 5.75362 16.5137C4.31371 15.0462 3.16667 13.7344 2.3125 12.5781C1.45833 11.4219 0.859375 10.375 0.515625 9.4375C0.171875 8.5 0 7.55208 0 6.59375C0 4.71552 0.630208 3.14701 1.89062 1.88822C3.15104 0.629405 4.70833 0 6.5625 0C7.75 0 8.84896 0.28125 9.85938 0.84375C10.8698 1.40625 11.75 2.21875 12.5 3.28125C13.375 2.15625 14.3021 1.32812 15.2812 0.796875C16.2604 0.265625 17.3125 0 18.4375 0C20.2917 0 21.849 0.629405 23.1094 1.88822C24.3698 3.14701 25 4.71552 25 6.59375C25 7.55208 24.8281 8.5 24.4844 9.4375C24.1406 10.375 23.5417 11.4219 22.6875 12.5781C21.8333 13.7344 20.6863 15.0462 19.2464 16.5137C17.8065 17.9812 15.9847 19.7266 13.7812 21.75L12.5 22.9062Z" fill="black"/>
</svg>
