<svg width="60" height="60" viewBox="0 0 60 60" fill="none" xmlns="http://www.w3.org/2000/svg">
<path d="M2.5 50V40C2.5 38.5833 2.98958 37.3958 3.96875 36.4375C4.94792 35.4792 6.125 35 7.5 35H15.6875C16.5208 35 17.3125 35.2083 18.0625 35.625C18.8125 36.0417 19.4167 36.6042 19.875 37.3125C21.0833 38.9375 22.5729 40.2083 24.3438 41.125C26.1146 42.0417 28 42.5 30 42.5C32.0417 42.5 33.9479 42.0417 35.7188 41.125C37.4896 40.2083 38.9583 38.9375 40.125 37.3125C40.6667 36.6042 41.3021 36.0417 42.0312 35.625C42.7604 35.2083 43.5208 35 44.3125 35H52.5C53.9167 35 55.1042 35.4792 56.0625 36.4375C57.0208 37.3958 57.5 38.5833 57.5 40V50H40V44.3125C38.5417 45.3542 36.9688 46.1458 35.2812 46.6875C33.5938 47.2292 31.8333 47.5 30 47.5C28.2083 47.5 26.4583 47.2188 24.75 46.6562C23.0417 46.0938 21.4583 45.2917 20 44.25V50H2.5ZM30 40C28.4167 40 26.9167 39.6354 25.5 38.9062C24.0833 38.1771 22.8958 37.1667 21.9375 35.875C21.2292 34.8333 20.3438 34.0104 19.2812 33.4062C18.2188 32.8021 17.0625 32.5 15.8125 32.5C16.7292 30.9583 18.6667 29.7396 21.625 28.8438C24.5833 27.9479 27.375 27.5 30 27.5C32.625 27.5 35.4167 27.9479 38.375 28.8438C41.3333 29.7396 43.2708 30.9583 44.1875 32.5C42.9792 32.5 41.8333 32.8021 40.75 33.4062C39.6667 34.0104 38.7708 34.8333 38.0625 35.875C37.1458 37.2083 35.9792 38.2292 34.5625 38.9375C33.1458 39.6458 31.625 40 30 40ZM10 32.5C7.91667 32.5 6.14583 31.7708 4.6875 30.3125C3.22917 28.8542 2.5 27.0833 2.5 25C2.5 22.875 3.22917 21.0938 4.6875 19.6562C6.14583 18.2188 7.91667 17.5 10 17.5C12.125 17.5 13.9062 18.2188 15.3438 19.6562C16.7812 21.0938 17.5 22.875 17.5 25C17.5 27.0833 16.7812 28.8542 15.3438 30.3125C13.9062 31.7708 12.125 32.5 10 32.5ZM50 32.5C47.9167 32.5 46.1458 31.7708 44.6875 30.3125C43.2292 28.8542 42.5 27.0833 42.5 25C42.5 22.875 43.2292 21.0938 44.6875 19.6562C46.1458 18.2188 47.9167 17.5 50 17.5C52.125 17.5 53.9062 18.2188 55.3438 19.6562C56.7812 21.0938 57.5 22.875 57.5 25C57.5 27.0833 56.7812 28.8542 55.3438 30.3125C53.9062 31.7708 52.125 32.5 50 32.5ZM30 25C27.9167 25 26.1458 24.2708 24.6875 22.8125C23.2292 21.3542 22.5 19.5833 22.5 17.5C22.5 15.375 23.2292 13.5938 24.6875 12.1562C26.1458 10.7188 27.9167 10 30 10C32.125 10 33.9062 10.7188 35.3438 12.1562C36.7812 13.5938 37.5 15.375 37.5 17.5C37.5 19.5833 36.7812 21.3542 35.3438 22.8125C33.9062 24.2708 32.125 25 30 25Z" fill="black"/>
</svg>
