<svg width="18" height="18" viewBox="0 0 18 18" fill="none" xmlns="http://www.w3.org/2000/svg">
<g clip-path="url(#clip0_892_2720)">
<path d="M17.4213 3.90715C17.4213 3.7143 17.3433 3.53928 17.2179 3.41276L14.4311 0.625875C14.3046 0.499908 14.1307 0.421875 13.9378 0.421875C13.745 0.421875 13.5711 0.499908 13.4446 0.625875L1.74059 12.3302C1.65921 12.4116 1.5979 12.5136 1.56446 12.6268L1.56335 12.6318L0.448628 16.5334C0.431907 16.5903 0.421875 16.656 0.421875 16.724C0.421875 17.1092 0.733439 17.4213 1.11857 17.4219C1.1888 17.4219 1.2568 17.4113 1.32089 17.3923L1.31588 17.3934L5.09923 16.2787C5.21405 16.2436 5.3127 16.1839 5.39296 16.1054L17.2151 4.40043C17.3427 4.27447 17.4208 4.10056 17.4213 3.90715ZM4.53686 14.9923L2.13631 15.699L2.85363 13.1886L11.1533 4.88869L12.9474 6.66506L4.53686 14.9923ZM13.9378 5.68407L12.1387 3.90269L13.9378 2.10348L15.7375 3.90269L13.9378 5.68407Z" fill="black"/>
</g>
<defs>
<clipPath id="clip0_892_2720">
<rect width="18" height="18" fill="white"/>
</clipPath>
</defs>
</svg>
