<svg width="23" height="31" viewBox="0 0 23 31" fill="none" xmlns="http://www.w3.org/2000/svg">
<path d="M0.36 3C0.36 2.22667 0.48 1.70667 0.72 1.44C0.96 1.14667 1.53333 0.973332 2.44 0.919999C4.04 0.813332 5.64 0.799999 7.24 0.88C8.84 0.959999 10.3733 1.17333 11.84 1.52C13.3067 1.86667 14.6667 2.37333 15.92 3.04C17.1733 3.70667 18.2667 4.57333 19.2 5.64C20.1333 6.70667 20.8667 8 21.4 9.52C21.9333 11.04 22.2 12.8267 22.2 14.88C22.2 19.92 20.56 23.7333 17.28 26.32C14 28.88 9.04 30.16 2.4 30.16C1.25333 30.16 0.68 29.52 0.68 28.24L0.36 3ZM7.28 23.56C10 23.1867 12.04 22.2933 13.4 20.88C14.76 19.44 15.44 17.4267 15.44 14.84C15.44 13.64 15.2533 12.5467 14.88 11.56C14.5067 10.5733 13.96 9.73333 13.24 9.04C12.52 8.37333 11.6267 7.86667 10.56 7.52C9.52 7.14667 8.32 6.98667 6.96 7.04L7.28 23.56Z" fill="#B56FCF"/>
</svg>
