<svg width="27" height="31" viewBox="0 0 27 31" fill="none" xmlns="http://www.w3.org/2000/svg">
<path d="M19.72 15.52C19.72 14.08 19.56 12.8133 19.24 11.72C18.92 10.6267 18.4933 9.70667 17.96 8.96C17.4 8.24 16.7467 7.70667 16 7.36C15.2533 6.98667 14.4533 6.8 13.6 6.8C12.7467 6.8 11.9467 6.98667 11.2 7.36C10.4533 7.70667 9.81333 8.24 9.28 8.96C8.72 9.70667 8.28 10.6267 7.96 11.72C7.64 12.8133 7.48 14.08 7.48 15.52C7.48 16.96 7.64 18.2267 7.96 19.32C8.28 20.4133 8.72 21.32 9.28 22.04C9.81333 22.76 10.4533 23.3067 11.2 23.68C11.9467 24.0267 12.7467 24.2 13.6 24.2C14.4533 24.2 15.2533 24.0267 16 23.68C16.7467 23.3067 17.4 22.76 17.96 22.04C18.4933 21.32 18.92 20.4133 19.24 19.32C19.56 18.2267 19.72 16.96 19.72 15.52ZM26.72 15.52C26.72 17.84 26.36 19.9333 25.64 21.8C24.9467 23.6667 24 25.2533 22.8 26.56C21.6 27.8667 20.2 28.8667 18.6 29.56C17.0267 30.2533 15.36 30.6 13.6 30.6C11.84 30.6 10.16 30.2533 8.56 29.56C6.98667 28.8667 5.6 27.8667 4.4 26.56C3.2 25.2533 2.24 23.6667 1.52 21.8C0.826667 19.9333 0.48 17.8267 0.48 15.48C0.48 13.16 0.826667 11.0667 1.52 9.2C2.24 7.33333 3.2 5.74667 4.4 4.44C5.6 3.13333 6.98667 2.13333 8.56 1.44C10.16 0.746666 11.84 0.399999 13.6 0.399999C15.36 0.399999 17.0267 0.759999 18.6 1.48C20.2 2.17333 21.6 3.17333 22.8 4.48C24 5.78667 24.9467 7.37333 25.64 9.24C26.36 11.1067 26.72 13.2 26.72 15.52Z" fill="#FA7373"/>
</svg>
