<svg width="23" height="31" viewBox="0 0 23 31" fill="none" xmlns="http://www.w3.org/2000/svg">
<path d="M0.96 2.92C0.933333 2.30667 1.01333 1.89333 1.2 1.68C1.41333 1.44 1.81333 1.25333 2.4 1.12C2.98667 1.01333 3.53333 0.919998 4.04 0.839998C4.54667 0.733332 5.04 0.653333 5.52 0.599998C5.97333 0.546666 6.42667 0.506666 6.88 0.479998C7.33333 0.453331 7.81333 0.426665 8.32 0.399999C9.76 0.373332 11.1733 0.466666 12.56 0.68C13.9733 0.866666 15.24 1.25333 16.36 1.84C17.48 2.42667 18.4 3.22667 19.12 4.24C19.84 5.22667 20.2533 6.49333 20.36 8.04C20.44 9.08 20.32 10.1067 20 11.12C19.68 12.1067 19.0533 12.9467 18.12 13.64C19.4 14.2533 20.4 15.24 21.12 16.6C21.84 17.96 22.2267 19.4133 22.28 20.96C22.3067 22.3467 22.08 23.5467 21.6 24.56C21.12 25.5733 20.44 26.4133 19.56 27.08C18.68 27.7733 17.64 28.3333 16.44 28.76C15.24 29.16 13.9467 29.4667 12.56 29.68C11.1733 29.8933 9.73333 30.0267 8.24 30.08C6.74667 30.16 5.26667 30.1867 3.8 30.16C3.50667 30.16 3.22667 30.1467 2.96 30.12C2.72 30.0933 2.52 30.0133 2.36 29.88C2.17333 29.7467 2.01333 29.5467 1.88 29.28C1.77333 29.04 1.72 28.68 1.72 28.2L0.96 2.92ZM8.16 24.36C9.22667 24.36 10.2133 24.3067 11.12 24.2C12.0533 24.0933 12.8667 23.9067 13.56 23.64C14.2267 23.3733 14.7333 23.0267 15.08 22.6C15.4533 22.1467 15.6267 21.6 15.6 20.96C15.5467 20.1333 15.2267 19.52 14.64 19.12C14.0533 18.6933 13.36 18.4 12.56 18.24C11.76 18.08 10.9333 18.0267 10.08 18.08C9.25333 18.1067 8.54667 18.1467 7.96 18.2L8.16 24.36ZM7.72 12.72C8.41333 12.72 9.10667 12.6933 9.8 12.64C10.52 12.5867 11.16 12.4267 11.72 12.16C12.28 11.92 12.7333 11.5467 13.08 11.04C13.4267 10.5333 13.6 9.82667 13.6 8.92C13.6 8.2 13.4133 7.62667 13.04 7.2C12.6667 6.74667 12.1867 6.41333 11.6 6.2C11.0133 6.01333 10.36 5.92 9.64 5.92C8.92 5.89333 8.21333 5.92 7.52 6L7.72 12.72Z" fill="#6FA6F4"/>
</svg>
