<svg width="28" height="31" viewBox="0 0 28 31" fill="none" xmlns="http://www.w3.org/2000/svg">
<path d="M20.28 1.08C20.5467 0.706666 20.7733 0.479999 20.96 0.399999C21.1467 0.293332 21.4667 0.346665 21.92 0.559999L26.08 2.36C26.56 2.57333 26.84 2.86666 26.92 3.24C27.0267 3.58666 26.92 3.98667 26.6 4.44L18.12 16.12C17.8267 16.5467 17.5867 16.9467 17.4 17.32C17.24 17.6933 17.16 18.2 17.16 18.84V28.08C17.16 28.88 17.0267 29.4267 16.76 29.72C16.4933 30.04 16.0133 30.2 15.32 30.2H11.96C11.2667 30.2 10.7867 30.04 10.52 29.72C10.28 29.4267 10.16 28.88 10.16 28.08L10.04 18.84C10.04 18.2 9.94667 17.6933 9.76 17.32C9.6 16.9467 9.37333 16.5467 9.08 16.12L0.6 4.44C0.28 3.98667 0.16 3.58666 0.24 3.24C0.346667 2.86666 0.64 2.57333 1.12 2.36L5.28 0.559999C5.73333 0.346665 6.05333 0.293332 6.24 0.399999C6.42667 0.479999 6.65333 0.706666 6.92 1.08L13.56 10.52L20.28 1.08Z" fill="#FACC57"/>
</svg>
