<svg width="7" height="31" viewBox="0 0 7 31" fill="none" xmlns="http://www.w3.org/2000/svg">
<path d="M0.2 27.48C0.2 26.5467 0.506667 25.8 1.12 25.24C1.76 24.6533 2.54667 24.36 3.48 24.36C4.36 24.36 5.12 24.6533 5.76 25.24C6.4 25.8 6.72 26.5467 6.72 27.48C6.72 28.3867 6.4 29.12 5.76 29.68C5.12 30.2667 4.36 30.56 3.48 30.56C2.54667 30.56 1.76 30.2667 1.12 29.68C0.506667 29.12 0.2 28.3867 0.2 27.48ZM0.2 2.6C0.2 1.90667 0.306667 1.44 0.52 1.2C0.76 0.933331 1.16 0.799998 1.72 0.799998H5.36C5.94667 0.799998 6.34667 0.933331 6.56 1.2C6.77333 1.44 6.88 1.90667 6.88 2.6V20.24C6.88 20.9333 6.77333 21.4133 6.56 21.68C6.34667 21.92 5.94667 22.04 5.36 22.04H1.72C1.16 22.04 0.76 21.92 0.52 21.68C0.306667 21.4133 0.2 20.9333 0.2 20.24V2.6Z" fill="#EA83A8"/>
</svg>
