<svg width="7" height="13" viewBox="0 0 7 13" fill="none" xmlns="http://www.w3.org/2000/svg">
<path d="M6.54098 0.252489C6.3945 0.10582 6.19593 0.0234375 5.9889 0.0234375C5.78186 0.0234375 5.5833 0.10582 5.43681 0.252489L0.228479 5.47386C0.0821772 5.62068 0 5.81983 0 6.02732C0 6.23493 0.0821772 6.43396 0.228479 6.58079L5.43681 11.8022C5.5833 11.9489 5.78186 12.0313 5.9889 12.0313C6.19593 12.0313 6.3945 11.9489 6.54098 11.8022C6.68728 11.6553 6.76946 11.4563 6.76946 11.2487C6.76946 11.0412 6.68728 10.8421 6.54098 10.6952L1.88473 6.02732L6.54098 1.35942C6.68728 1.21258 6.76946 1.01351 6.76946 0.805955C6.76946 0.598405 6.68728 0.399345 6.54098 0.252489Z" fill="#ACACAC"/>
</svg>
