<svg width="7" height="13" viewBox="0 0 7 13" fill="none" xmlns="http://www.w3.org/2000/svg">
<path d="M6.54094 5.45499L1.3326 0.233646C1.18448 0.0953007 0.988646 0.0199875 0.78625 0.023559C0.583854 0.0271408 0.39073 0.109336 0.247605 0.25284C0.10448 0.396334 0.0224998 0.589932 0.0188539 0.792835C0.0153123 0.995738 0.090417 1.1921 0.228438 1.34058L4.88469 6.00846L0.228438 10.6764C0.0821878 10.8233 0 11.0223 0 11.2298C0 11.4374 0.0821878 11.6365 0.228438 11.7833C0.374896 11.93 0.573542 12.0124 0.780521 12.0124C0.987604 12.0124 1.18615 11.93 1.3326 11.7833L6.54094 6.56193C6.68729 6.4151 6.76948 6.21606 6.76948 6.00846C6.76948 5.80096 6.68729 5.60192 6.54094 5.45499Z" fill="#ACACAC"/>
</svg>
