<svg width="17" height="17" viewBox="0 0 17 17" fill="none" xmlns="http://www.w3.org/2000/svg">
<path d="M8.5 17C3.80558 17 0 13.1944 0 8.5C0 3.80558 3.80558 0 8.5 0C13.1944 0 17 3.80558 17 8.5C17 13.1944 13.1944 17 8.5 17Z" fill="#FFD600"/>
<path d="M11.2668 11.7893C11.5721 12.2811 11.9039 12.7522 12.6067 12.7522C13.1969 12.7522 13.5066 12.4613 13.5066 12.0588C13.5066 11.5771 13.1863 11.4061 12.5369 11.1256L12.1809 10.9751C11.1534 10.5429 10.4701 10.0013 10.4701 8.85719C10.4701 7.80281 11.284 7.00044 12.5559 7.00044C13.4616 7.00044 14.1124 7.3115 14.5818 8.12612L13.4727 8.82919C13.2287 8.39694 12.9649 8.22675 12.5559 8.22675C12.1386 8.22675 11.8743 8.48794 11.8743 8.82919C11.8743 9.25094 12.139 9.42156 12.75 9.68275L13.1061 9.83325C14.3171 10.3447 15 10.8671 15 12.0413C15 13.3066 13.9924 14 12.6397 14C11.3167 14 10.5654 13.3416 10.1471 12.5265L11.2668 11.7893ZM6.15542 11.8252C6.37866 12.2216 6.71792 12.5265 7.20585 12.5265C7.67261 12.5265 7.94128 12.3436 7.94128 11.6327V7H9.4117V11.8567C9.4117 13.3298 8.55009 14 7.29188 14C6.15498 14 5.33441 13.2361 5 12.5265L6.15542 11.8252Z" fill="#000001"/>
</svg>
