<svg width="17" height="17" viewBox="0 0 17 17" fill="none" xmlns="http://www.w3.org/2000/svg">
<path d="M0 8.5C0 13.1944 3.80558 17 8.5 17C13.1944 17 17 13.1944 17 8.5C17 3.80558 13.1944 0 8.5 0C3.80558 0 0 3.80558 0 8.5Z" fill="#1976D2"/>
<path d="M10 6H5V7.45067H6.79333V14H8.21421V7.45067H10V6Z" fill="white"/>
<path d="M14.6358 7.81595C14.6358 7.81595 13.8488 7.28481 12.9591 7.28481C12.0695 7.28481 11.7493 7.71257 11.7493 8.16974C11.7493 9.34964 15 9.23156 15 11.6061C15 15.2639 10.0436 13.6415 10.0436 13.6415V11.8868C10.0436 11.8868 10.9914 12.6095 12.1281 12.6095C13.2648 12.6095 13.2216 11.8574 13.2216 11.754C13.2216 10.6628 10 10.6628 10 8.24371C10 4.95486 14.6939 6.2524 14.6939 6.2524L14.6358 7.81595Z" fill="white"/>
</svg>
